<svg width="362" height="309" viewBox="0 0 362 309" fill="none" xmlns="http://www.w3.org/2000/svg">
<g opacity="0.2" clip-path="url(#clip0_1672_3435)">
<path d="M197.441 297.778C197.151 297.791 196.864 297.715 196.619 297.56C196.373 297.405 196.182 297.178 196.07 296.91C195.958 296.642 195.931 296.347 195.992 296.063C196.054 295.779 196.202 295.522 196.415 295.325L196.512 294.939C196.499 294.908 196.486 294.877 196.473 294.847C196.181 294.157 195.691 293.569 195.066 293.156C194.44 292.743 193.707 292.525 192.957 292.527C192.208 292.53 191.476 292.754 190.853 293.172C190.231 293.589 189.746 294.181 189.459 294.873C188.311 297.635 186.851 300.401 186.491 303.321C186.333 304.612 186.399 305.921 186.688 307.189C183.994 301.313 182.594 294.928 182.585 288.464C182.585 286.842 182.675 285.222 182.855 283.61C183.005 282.289 183.212 280.977 183.476 279.674C184.92 272.607 188.021 265.982 192.524 260.346C194.704 259.157 196.466 257.329 197.574 255.108C197.976 254.31 198.26 253.458 198.417 252.579C198.171 252.611 197.49 248.868 197.675 248.639C197.333 248.119 196.719 247.861 196.345 247.354C194.484 244.832 191.92 245.272 190.582 248.699C187.722 250.142 187.695 252.534 189.449 254.835C190.565 256.298 190.719 258.279 191.698 259.846C191.597 259.975 191.493 260.1 191.392 260.229C189.55 262.596 187.945 265.138 186.599 267.818C186.926 264.816 186.535 261.778 185.459 258.956C184.368 256.325 182.324 254.11 180.523 251.836C178.36 249.105 173.925 250.297 173.544 253.759C173.54 253.793 173.537 253.826 173.533 253.86C173.801 254.01 174.063 254.17 174.319 254.34C174.64 254.555 174.89 254.862 175.034 255.221C175.178 255.58 175.211 255.974 175.127 256.351C175.043 256.729 174.847 257.073 174.565 257.337C174.282 257.602 173.927 257.775 173.544 257.834L173.505 257.84C173.6 258.803 173.769 259.758 174.009 260.696C171.699 269.625 176.686 272.877 183.807 273.023C183.964 273.104 184.117 273.184 184.274 273.261C182.922 277.091 182.074 281.08 181.751 285.129C181.568 287.517 181.579 289.917 181.783 292.303L181.771 292.219C181.255 289.565 179.839 287.17 177.761 285.439C174.675 282.905 170.315 281.972 166.986 279.935C166.632 279.708 166.22 279.587 165.8 279.586C165.379 279.585 164.967 279.704 164.612 279.929C164.258 280.155 163.974 280.477 163.797 280.858C163.619 281.238 163.554 281.662 163.609 282.079C163.613 282.108 163.618 282.138 163.623 282.168C164.119 282.37 164.602 282.603 165.069 282.865C165.337 283.016 165.599 283.176 165.855 283.345C166.177 283.56 166.426 283.867 166.57 284.226C166.714 284.585 166.747 284.979 166.663 285.357C166.579 285.734 166.383 286.078 166.101 286.342C165.819 286.607 165.463 286.78 165.08 286.839L165.041 286.845C165.013 286.849 164.989 286.853 164.961 286.857C165.809 288.881 166.999 290.744 168.479 292.364C169.923 300.159 176.127 300.898 182.763 298.628H182.767C183.495 301.791 184.55 304.869 185.915 307.813H197.159C197.2 307.688 197.236 307.559 197.272 307.434C196.231 307.5 195.186 307.438 194.161 307.249C194.995 306.226 195.829 305.195 196.664 304.171C196.682 304.152 196.7 304.132 196.716 304.111C197.139 303.587 197.566 303.068 197.99 302.544L197.99 302.543C198.012 300.938 197.828 299.336 197.441 297.778Z" fill="#F2F2F2"/>
<path d="M180.781 120.06C168.111 120.06 155.726 116.305 145.191 109.269C134.656 102.233 126.446 92.2334 121.597 80.5334C116.748 68.8334 115.48 55.9591 117.952 43.5385C120.423 31.1179 126.525 19.7088 135.484 10.754C144.442 1.79924 155.857 -4.29904 168.283 -6.76965C180.71 -9.24027 193.59 -7.97226 205.296 -3.12597C217.001 1.72031 227.006 9.92722 234.045 20.4569C241.084 30.9866 244.841 43.3662 244.841 56.0301C244.822 73.0061 238.066 89.2812 226.057 101.285C214.047 113.289 197.765 120.041 180.781 120.06ZM180.781 -6.99162C168.31 -6.99162 156.12 -3.29546 145.751 3.62946C135.383 10.5544 127.301 20.397 122.529 31.9127C117.757 43.4285 116.508 56.1 118.941 68.3251C121.374 80.5501 127.379 91.7795 136.197 100.593C145.015 109.407 156.249 115.409 168.48 117.841C180.711 120.273 193.388 119.025 204.91 114.255C216.431 109.485 226.278 101.407 233.206 91.0431C240.134 80.6793 243.832 68.4947 243.832 56.0301C243.813 39.3215 237.164 23.3027 225.344 11.4879C213.524 -0.326906 197.497 -6.97274 180.781 -6.99162Z" fill="#F2F2F2"/>
<path d="M187.81 79.2222H174.191C173.522 79.2222 172.88 78.9566 172.407 78.4838C171.934 78.0111 171.668 77.3699 171.668 76.7013C171.668 76.0327 171.934 75.3915 172.407 74.9188C172.88 74.446 173.522 74.1804 174.191 74.1804H187.81C188.478 74.1804 189.12 74.446 189.593 74.9188C190.066 75.3915 190.332 76.0327 190.332 76.7013C190.332 77.3699 190.066 78.0111 189.593 78.4838C189.12 78.9566 188.478 79.2222 187.81 79.2222Z" fill="#E6E6E6"/>
<path d="M190.938 152.386H171.062C170.085 152.386 169.149 151.999 168.459 151.309C167.769 150.619 167.381 149.683 167.381 148.707C167.381 147.731 167.769 146.796 168.459 146.106C169.149 145.416 170.085 145.028 171.062 145.028H190.938C191.914 145.028 192.851 145.416 193.541 146.106C194.231 146.796 194.619 147.731 194.619 148.707C194.619 149.683 194.231 150.619 193.541 151.309C192.851 151.999 191.914 152.386 190.938 152.386Z" fill="#28A265"/>
<path d="M247.437 136.965H114.563C113.379 136.964 112.244 136.493 111.407 135.656C110.569 134.82 110.099 133.685 110.097 132.502V92.9068C110.099 91.7234 110.569 90.5889 111.407 89.7521C112.244 88.9153 113.379 88.4446 114.563 88.4432H247.437C248.621 88.4446 249.756 88.9153 250.593 89.7521C251.43 90.5889 251.901 91.7234 251.903 92.9068V132.502C251.901 133.685 251.43 134.82 250.593 135.656C249.756 136.493 248.621 136.964 247.437 136.965Z" fill="#E6E6E6"/>
<path d="M234.527 133.955H117.576C116.392 133.953 115.257 133.483 114.42 132.646C113.583 131.809 113.112 130.674 113.11 129.491V95.9198C113.112 94.7364 113.583 93.6019 114.42 92.7651C115.257 91.9284 116.392 91.4577 117.576 91.4563H244.425C245.609 91.4577 246.744 91.9284 247.581 92.7651C248.418 93.6019 248.889 94.7364 248.891 95.9198V119.597C248.886 123.404 247.372 127.053 244.679 129.745C241.986 132.436 238.335 133.95 234.527 133.955Z" fill="white"/>
<path d="M194.185 103.396H140.78C140.475 103.396 140.182 103.275 139.966 103.059C139.75 102.843 139.628 102.55 139.628 102.245C139.628 101.939 139.75 101.647 139.966 101.431C140.182 101.215 140.475 101.094 140.78 101.094H194.185C194.491 101.094 194.784 101.215 195 101.431C195.216 101.647 195.337 101.939 195.337 102.245C195.337 102.55 195.216 102.843 195 103.059C194.784 103.275 194.491 103.396 194.185 103.396Z" fill="#28A265"/>
<path d="M221.22 108.104H140.78C140.475 108.104 140.182 107.983 139.966 107.767C139.75 107.551 139.628 107.258 139.628 106.953C139.628 106.648 139.75 106.355 139.966 106.139C140.182 105.923 140.475 105.802 140.78 105.802H221.22C221.525 105.802 221.818 105.923 222.034 106.139C222.25 106.355 222.372 106.648 222.372 106.953C222.372 107.258 222.25 107.551 222.034 107.767C221.818 107.983 221.525 108.104 221.22 108.104Z" fill="#E6E6E6"/>
<path d="M221.22 113.508H140.78C140.629 113.509 140.479 113.479 140.339 113.422C140.199 113.364 140.071 113.279 139.964 113.172C139.857 113.065 139.772 112.938 139.714 112.798C139.656 112.659 139.626 112.509 139.626 112.357C139.626 112.206 139.656 112.056 139.714 111.916C139.772 111.776 139.857 111.649 139.964 111.542C140.071 111.436 140.199 111.351 140.339 111.293C140.479 111.235 140.629 111.206 140.78 111.206H221.22C221.525 111.207 221.817 111.328 222.033 111.544C222.248 111.76 222.369 112.052 222.369 112.357C222.369 112.662 222.248 112.955 222.033 113.17C221.817 113.386 221.525 113.508 221.22 113.508Z" fill="#E6E6E6"/>
<path d="M221.22 118.913H140.78C140.629 118.913 140.479 118.884 140.339 118.826C140.199 118.768 140.071 118.684 139.964 118.577C139.857 118.47 139.772 118.343 139.714 118.203C139.656 118.063 139.626 117.913 139.626 117.762C139.626 117.61 139.656 117.46 139.714 117.321C139.772 117.181 139.857 117.054 139.964 116.947C140.071 116.84 140.199 116.755 140.339 116.698C140.479 116.64 140.629 116.61 140.78 116.611H221.22C221.525 116.611 221.817 116.733 222.033 116.949C222.248 117.164 222.369 117.457 222.369 117.762C222.369 118.067 222.248 118.359 222.033 118.575C221.817 118.791 221.525 118.912 221.22 118.913Z" fill="#E6E6E6"/>
<path d="M221.22 124.317H140.78C140.629 124.318 140.479 124.288 140.339 124.23C140.199 124.173 140.071 124.088 139.964 123.981C139.857 123.874 139.772 123.747 139.714 123.607C139.656 123.467 139.626 123.318 139.626 123.166C139.626 123.015 139.656 122.865 139.714 122.725C139.772 122.585 139.857 122.458 139.964 122.351C140.071 122.244 140.199 122.16 140.339 122.102C140.479 122.044 140.629 122.015 140.78 122.015H221.22C221.525 122.016 221.817 122.137 222.033 122.353C222.248 122.569 222.369 122.861 222.369 123.166C222.369 123.471 222.248 123.763 222.033 123.979C221.817 124.195 221.525 124.317 221.22 124.317Z" fill="#E6E6E6"/>
<path d="M291.896 302.489L286.499 302.488L283.931 281.677L291.898 281.678L291.896 302.489Z" fill="#A0616A"/>
<path d="M292.087 308.117L275.487 308.117V307.907C275.487 306.194 276.168 304.551 277.38 303.34C278.591 302.129 280.235 301.449 281.948 301.449L284.981 299.15L290.638 301.449L292.087 301.449L292.087 308.117Z" fill="#2F2E41"/>
<path d="M336.027 295.58L331.19 297.975L319.646 280.467L326.785 276.932L336.027 295.58Z" fill="#A0616A"/>
<path d="M338.698 300.539L323.824 307.904L323.731 307.716C322.97 306.182 322.85 304.408 323.398 302.785C323.946 301.162 325.116 299.823 326.652 299.063L328.348 295.657L334.438 295.207L335.736 294.564L338.698 300.539Z" fill="#2F2E41"/>
<path d="M275.906 190.626C275.906 190.626 269.761 199.188 274.196 213.98C278.631 228.772 276.142 241.996 277.387 244.648C278.631 247.3 281.138 249.818 279.067 251.828C276.996 253.839 275.905 255.474 277.541 256.019C279.177 256.563 284.629 294.709 284.629 294.709L293.897 295.254C293.897 295.254 297.254 277.534 293.667 263.234C293.667 263.234 294.455 252.853 292.813 249.804C291.171 246.755 291.493 249.505 291.604 245.678C291.666 242.91 292.07 240.16 292.806 237.491C293.352 235.311 293.667 213.342 293.667 213.342L302.69 242.496C303.052 243.5 303.188 244.572 303.088 245.635C302.864 247.137 302.862 249.381 303.136 250.166C303.41 250.951 303.714 251.116 303.562 252.668C303.41 254.221 321.568 286.942 321.568 286.942L330.591 280.892L321.701 252.204C320.819 251.226 320.084 250.125 319.521 248.934C318.43 246.755 318.388 246.634 318.954 245.06C319.521 243.485 319.521 240.417 319.521 239.499C319.521 238.581 320.087 196.895 312.989 190.763C305.891 184.632 275.906 190.626 275.906 190.626Z" fill="#2F2E41"/>
<path d="M309.235 124.307L307.388 119.052L302.344 114.01L293.04 112.9L286.983 116.88L281.373 122.408L273.088 191.149C273.088 191.149 312.221 206.229 317.349 193.573L309.235 124.307Z" fill="#CCCCCC"/>
<path d="M312.407 124.307L306.972 118.874C306.972 118.874 304.375 153.597 305.481 156.039C306.588 158.481 307.89 157.858 306.482 159.178C305.074 160.498 303.561 159.188 305.074 161.608C305.966 162.964 306.404 164.569 306.324 166.191C306.324 166.191 314.154 215.453 318.693 215.453C323.233 215.453 326.075 214.125 325.915 212.772C325.755 211.42 323.077 208.052 323.912 207.215C324.746 206.378 326.803 207.01 324.766 205.434C322.729 203.857 321.72 204.361 322.224 202.345C322.729 200.328 318.872 174.184 318.872 174.184L318.496 130.516L312.407 124.307Z" fill="#3F3D56"/>
<path d="M286.983 116.88L279.943 117.876L271.575 121.069C271.575 121.069 275.397 164.166 274.599 165.609C273.801 167.053 272.383 166.151 273.596 167.61C274.81 169.069 275.901 168.422 274.599 169.754C273.297 171.086 271.104 169.399 272.453 171.755C273.801 174.111 267.303 206.551 269.053 208.291C270.802 210.031 275.31 208.948 275.312 207.663C275.174 206.278 274.651 204.96 273.801 203.857C273.557 203.578 273.423 203.22 273.423 202.849C273.423 202.478 273.557 202.12 273.801 201.841C274.516 201.153 275.007 200.267 275.21 199.297C275.314 198.311 276.085 197.1 276.456 196.193C276.827 195.286 286.181 133.882 286.181 133.882L286.983 116.88Z" fill="#3F3D56"/>
<path d="M256.947 150.815L260.121 149.158C256.157 145.584 246.322 139.737 246.322 139.737L229.371 128.314C229.123 127.73 228.725 127.222 228.218 126.841C227.711 126.459 227.112 126.218 226.482 126.141C225.852 126.065 225.212 126.155 224.629 126.404C224.045 126.653 223.537 127.051 223.156 127.558C222.775 128.066 222.534 128.664 222.458 129.294C222.382 129.924 222.474 130.563 222.723 131.146C222.973 131.73 223.372 132.237 223.88 132.617C224.388 132.997 224.987 133.237 225.617 133.312L244.614 150.324L256.947 150.815Z" fill="#A0616A"/>
<path d="M280.15 138.21L280.184 124.278L272.441 120.577L252.912 141.235L251.398 140.227H247.867L239.292 150.311C239.292 150.311 243.86 153.016 246.116 151.915C248.372 150.815 248.16 152.396 248.16 152.396C248.495 152.817 248.961 153.113 249.485 153.236C250.008 153.359 250.558 153.302 251.045 153.075C252.912 152.327 256.442 154.344 256.442 154.344L280.15 138.21Z" fill="#3F3D56"/>
<path d="M298.709 109.699C304.945 109.699 310.001 104.646 310.001 98.4127C310.001 92.1793 304.945 87.1261 298.709 87.1261C292.473 87.1261 287.417 92.1793 287.417 98.4127C287.417 104.646 292.473 109.699 298.709 109.699Z" fill="#A0616A"/>
<path d="M312.34 101.278C311.274 103.363 309.843 105.241 308.116 106.823C307.619 107.386 306.987 107.813 306.278 108.061C305.922 108.177 305.536 108.165 305.188 108.026C304.84 107.887 304.552 107.631 304.374 107.301L304.164 107.016C304.769 106.831 305.34 106.548 305.855 106.18C306.11 105.994 306.318 105.751 306.46 105.469C306.602 105.187 306.675 104.875 306.672 104.56C306.654 104.244 306.514 103.948 306.282 103.734C306.05 103.519 305.743 103.403 305.427 103.41C304.722 103.493 304.091 104.317 303.459 103.999C302.949 103.74 303.022 102.997 303.169 102.436C303.954 99.5096 303.626 94.9731 302.495 94.8145C301.37 94.5857 300.299 94.1474 299.336 93.5224C298.373 92.8965 297.297 92.4639 296.168 92.2487C296.086 92.238 296.004 92.2322 295.916 92.2251C295.884 91.6216 295.779 91.0243 295.603 90.446C295.48 91.0566 295.293 91.6524 295.044 92.2233C294.066 92.3566 293.079 92.4065 292.093 92.3725C291.042 92.2505 288.02 94.6987 287.998 94.3619C287.966 93.7584 287.861 93.1611 287.685 92.5828C287.562 93.1934 287.375 93.7892 287.126 94.3601C287.114 94.3834 287.109 94.4031 287.098 94.4264C286.777 93.6437 286.685 92.7684 286.693 93.4221C286.018 89.263 287.356 86.7589 290.771 84.2925C291.453 83.7486 292.262 83.3867 293.122 83.2406C293.552 83.172 293.992 83.2151 294.4 83.3658C294.808 83.5165 295.171 83.7698 295.452 84.1011C296.764 83.4078 298.236 83.0776 299.718 83.1448C301.2 83.2119 302.637 83.6738 303.88 84.4828C306.336 86.1277 308.274 87.2221 307.947 90.1634C310.275 90.3875 312.242 92.2566 312.978 94.4717C313.707 96.6904 313.328 99.1663 312.34 101.278Z" fill="#2F2E41"/>
<path d="M326.753 160.09L318.652 158.93C315.912 163.509 314.938 175.698 314.938 175.698L307.01 194.533C306.485 194.889 306.063 195.378 305.787 195.949C305.511 196.52 305.39 197.154 305.437 197.787C305.483 198.419 305.696 199.029 306.053 199.553C306.411 200.077 306.9 200.498 307.472 200.774C308.043 201.049 308.678 201.169 309.311 201.122C309.944 201.074 310.553 200.861 311.077 200.503C311.601 200.145 312.022 199.656 312.297 199.084C312.572 198.512 312.691 197.878 312.643 197.245L325.66 175.322L326.753 160.09Z" fill="#A0616A"/>
<path d="M308.101 132.011L311.533 127.286L318.494 130.519L324.283 152.84C324.283 152.84 328.511 155.59 327.609 157.53C326.707 159.469 326.228 161.035 327.16 162.146C328.092 163.258 330.807 163.34 328.785 165.152C326.762 166.964 328.494 171.7 328.494 171.7L326.556 176.024L314.45 175.519L308.101 132.011Z" fill="#3F3D56"/>
<path d="M28.1149 201.24C28.879 200.641 29.379 199.767 29.5086 198.805C29.6381 197.843 29.3869 196.868 28.8085 196.088C28.6884 195.932 28.5555 195.785 28.4113 195.65L33.5805 183.719L28.4465 178.968L23.1332 196.077C22.6204 196.718 22.3345 197.511 22.3199 198.331C22.3054 199.152 22.563 199.954 23.0526 200.613C23.3349 200.986 23.6877 201.299 24.091 201.535C24.4942 201.771 24.94 201.925 25.403 201.989C25.8659 202.052 26.3368 202.024 26.7889 201.906C27.241 201.788 27.6654 201.582 28.0378 201.3C28.0638 201.28 28.0895 201.26 28.1149 201.24Z" fill="#FFB6B6"/>
<path d="M58.1462 123.842C58.1462 123.842 54.3198 116.571 45.4432 124.423C36.5667 132.275 26.0774 171.578 26.2811 173.055C26.4848 174.533 28.6544 173.948 25.9101 176.076C23.1659 178.203 21.6486 176.292 23.1659 178.203C24.6832 180.115 28.0763 182.14 25.072 182.424C22.0676 182.708 33.0813 187.444 33.0813 187.444C33.0813 187.444 34.8136 187.029 35.3451 183.033C35.6436 180.789 34.6321 179.515 36.4127 179.141C38.1934 178.767 36.5243 174.709 36.7807 174.07C37.037 173.432 51.255 145.544 51.255 145.544L58.1462 123.842Z" fill="#28A265"/>
<path d="M75.6207 301.414L82.0478 301.414L85.1061 276.632L75.6191 276.632L75.6207 301.414Z" fill="#FFB6B6"/>
<path d="M75.3939 308.117L95.1607 308.116V307.867C95.1606 305.827 94.3499 303.871 92.9071 302.429C91.4643 300.987 89.5074 300.177 87.4669 300.176H87.4664L83.8558 297.438L77.1191 300.177L75.3936 300.177L75.3939 308.117Z" fill="#2F2E41"/>
<path d="M30.5659 289.596L35.8239 293.291L52.5875 274.778L44.8261 269.323L30.5659 289.596Z" fill="#FFB6B6"/>
<path d="M26.5234 294.949L42.6934 306.313L42.8372 306.108C44.0107 304.44 44.4732 302.374 44.1228 300.365C43.7725 298.355 42.638 296.568 40.969 295.394L39.5906 291.078L32.5041 289.445L31.0925 288.453L26.5234 294.949Z" fill="#2F2E41"/>
<path d="M50.0095 178.124L49.4754 179.264C45.9647 186.761 45.067 195.141 46.4314 203.305C46.5328 203.624 46.5134 203.969 46.3769 204.274C45.5308 205.266 46.8583 209.576 47.6192 211.982L48.3051 216.238C48.3051 216.238 47.1678 220.19 48.8952 219.899C50.6226 219.609 48.0503 223.825 49.698 224.881L53.9724 251.402L36.1396 280.779L42.7444 290.351L69.1632 256.353L69.4934 225.655L73.4562 250.411L73.7865 289.361L85.8021 288.084L90.2043 250.322L86.0052 198.099L79.4005 175.456L50.0095 178.124Z" fill="#2F2E41"/>
<path d="M58.2652 110.133L67.9859 110.595L72.6342 118.622C74.6955 119.24 76.5916 120.313 78.1826 121.762C79.7735 123.21 81.0187 124.997 81.8261 126.991L84.853 134.466L81.4096 177.683C81.4096 177.683 80.7194 180.297 81.9903 179.915C83.2612 179.533 82.7432 182.809 82.7432 182.809L87.4272 200.816L44.8415 197.115L47.2061 178.037C47.2061 178.037 43.9185 178.143 46.2302 175.832C48.5418 173.522 49.666 174.258 47.4454 171.526C45.2247 168.794 44.8945 166.814 44.8945 166.814L43.9038 153.281L42.2705 134.235C42.0113 131.212 42.5078 128.173 43.7152 125.39C44.9226 122.607 46.8031 120.168 49.1875 118.292L58.2652 110.133Z" fill="#28A265"/>
<path d="M63.306 107.904C70.1143 107.904 75.6335 102.387 75.6335 95.5824C75.6335 88.7773 70.1143 83.2606 63.306 83.2606C56.4977 83.2606 50.9785 88.7773 50.9785 95.5824C50.9785 102.387 56.4977 107.904 63.306 107.904Z" fill="#FFB6B6"/>
<path d="M58.5428 106.894C62.0803 106.778 62.4017 105.844 65.9392 105.728C67.0656 105.691 68.3948 105.537 68.9393 104.551C69.0979 104.181 69.1684 103.78 69.1455 103.379C69.1226 102.977 69.0069 102.587 68.8074 102.238C68.4037 101.545 68.0399 100.829 67.7176 100.095C67.5235 99.519 67.4725 98.9045 67.5692 98.3045C67.6659 97.7046 67.9073 97.1372 68.2726 96.6514C68.6379 96.1656 69.116 95.776 69.6657 95.5163C70.2154 95.2566 70.82 95.1346 71.4275 95.1608C72.504 95.2073 73.515 95.7133 74.5886 95.8058C76.0609 95.9326 79.3165 91.0737 78.6386 89.7612C77.9788 88.4837 76.6509 87.5197 76.4422 86.0972C76.3057 85.1667 76.69 84.2423 76.7425 83.3034C76.8203 81.9112 73.2897 85.0502 73.9363 83.8147C75.5224 80.784 60.5759 77.0266 58.1152 80.8229C57.1955 82.2418 55.5566 82.145 54.0957 82.9971C53.1383 83.5556 50.7206 85.4823 50.171 86.6831C49.666 87.9085 49.4273 89.2272 49.4709 90.5517C49.4488 96.7118 50.3877 102.378 55.3588 106.019" fill="#2F2E41"/>
<path d="M93.5389 200.71C92.8119 200.067 92.365 199.165 92.2931 198.196C92.2213 197.228 92.5302 196.27 93.1542 195.526C93.2835 195.377 93.4248 195.239 93.5769 195.113L89.1294 182.895L94.538 178.458L98.8201 195.854C99.2936 196.524 99.5317 197.333 99.4972 198.153C99.4628 198.973 99.1577 199.758 98.6295 200.387C98.3256 200.742 97.9547 201.033 97.5381 201.245C97.1214 201.456 96.6672 201.583 96.2013 201.62C95.7354 201.656 95.267 201.599 94.8227 201.455C94.3785 201.31 93.9672 201.079 93.6123 200.775C93.5875 200.754 93.5631 200.732 93.5389 200.71Z" fill="#FFB6B6"/>
<path d="M68.1836 121.658C68.1836 121.658 72.4374 114.629 80.8292 122.996C89.221 131.364 97.3444 171.223 97.0528 172.685C96.7612 174.148 94.6304 173.435 97.2427 175.723C99.8549 178.01 101.484 176.193 99.8549 178.01C98.2262 179.827 94.7182 181.646 97.7002 182.109C100.682 182.572 89.4053 186.643 89.4053 186.643C89.4053 186.643 87.7009 186.125 87.409 182.105C87.245 179.847 88.3309 178.635 86.5757 178.156C84.8205 177.676 86.729 173.725 86.5113 173.072C86.2935 172.42 73.7664 143.733 73.7664 143.733L68.1836 121.658Z" fill="#28A265"/>
<path d="M190.844 54.654C190.844 56.6489 190.253 58.599 189.144 60.258C188.036 61.9169 186.46 63.21 184.617 63.9739C182.773 64.7377 180.744 64.9379 178.787 64.5493C176.829 64.1606 175.031 63.2004 173.619 61.7902C172.208 60.38 171.246 58.5831 170.856 56.6267C170.467 54.6703 170.666 52.6423 171.429 50.7992C172.193 48.956 173.485 47.3804 175.145 46.2718C176.804 45.1631 178.755 44.5711 180.75 44.5706C182.076 44.5688 183.389 44.8284 184.614 45.3344C185.839 45.8405 186.952 46.5831 187.889 47.5197C188.827 48.4563 189.571 49.5686 190.077 50.7928C190.584 52.017 190.845 53.3291 190.844 54.654Z" fill="#28A265"/>
<path d="M180.976 56.1157C182.926 56.1157 184.507 54.5356 184.507 52.5865C184.507 50.6373 182.926 49.0573 180.976 49.0573C179.026 49.0573 177.445 50.6373 177.445 52.5865C177.445 54.5356 179.026 56.1157 180.976 56.1157Z" fill="white"/>
<path d="M184.761 57.3765H177.195C176.727 57.377 176.278 57.5631 175.947 57.8939C175.616 58.2247 175.43 58.6732 175.429 59.1411C175.537 60.6524 175.773 62.1519 176.135 63.6232C177.653 64.4047 179.344 64.7884 181.05 64.7381C182.756 64.6878 184.422 64.2053 185.891 63.3358C186.215 61.9568 186.427 60.5541 186.526 59.1411C186.526 58.6732 186.34 58.2247 186.009 57.8939C185.678 57.5631 185.229 57.377 184.761 57.3765Z" fill="white"/>
<path d="M2.65673e-06 308.4C-0.000232433 308.479 0.0151368 308.557 0.0452207 308.63C0.0753046 308.703 0.119506 308.769 0.175295 308.825C0.231083 308.881 0.297355 308.925 0.37029 308.955C0.443225 308.985 0.521389 309 0.600283 309H361.4C361.559 309 361.712 308.937 361.824 308.824C361.937 308.712 362 308.559 362 308.4C362 308.241 361.937 308.088 361.824 307.976C361.712 307.863 361.559 307.8 361.4 307.8H0.600283C0.521389 307.8 0.443224 307.815 0.37029 307.845C0.297356 307.875 0.23109 307.919 0.175302 307.975C0.119515 308.031 0.0753056 308.097 0.0452207 308.17C0.0151358 308.243 -0.000229755 308.321 2.65673e-06 308.4Z" fill="#CCCCCC"/>
</g>
<defs>
<clipPath id="clip0_1672_3435">
<rect width="362" height="317" fill="white" transform="translate(0 -8)"/>
</clipPath>
</defs>
</svg>
