<svg width="1920" height="424" viewBox="0 0 1920 424" fill="none" xmlns="http://www.w3.org/2000/svg">
<path d="M-57.6047 9L123.572 111.17C166.064 135.132 202.682 168.263 230.764 208.152V208.152C267.582 260.451 318.874 300.856 378.338 324.406L654.652 433.835C688.883 447.392 713.474 477.937 719.409 514.273V514.273C725.238 549.96 749.075 580.109 782.453 594.015L992.83 681.663C1039.05 700.917 1080.78 729.524 1115.41 765.685L1219.95 874.854C1253.52 909.92 1293.8 937.893 1338.38 957.119L1723.68 1123.28C1762.07 1139.84 1797.32 1162.9 1827.85 1191.46L2030.63 1381.06" stroke="#12BD67" stroke-opacity="0.12" stroke-width="19"/>
<path d="M-104.605 75L76.572 177.17C119.064 201.132 155.682 234.263 183.764 274.152V274.152C220.582 326.451 271.874 366.856 331.338 390.406L607.652 499.835C641.883 513.392 666.474 543.937 672.409 580.273V580.273C678.238 615.96 702.075 646.109 735.453 660.015L945.83 747.663C992.046 766.917 1033.78 795.524 1068.41 831.685L1172.95 940.854C1206.52 975.92 1246.8 1003.89 1291.38 1023.12L1676.68 1189.28C1715.07 1205.84 1750.32 1228.9 1780.85 1257.46L1983.63 1447.06" stroke="#12BD67" stroke-opacity="0.48" stroke-width="19"/>
<path d="M-151.605 141L29.572 243.17C72.0641 267.132 108.682 300.263 136.764 340.152V340.152C173.582 392.451 224.874 432.856 284.338 456.406L560.652 565.835C594.883 579.392 619.474 609.937 625.409 646.273V646.273C631.238 681.96 655.075 712.109 688.453 726.015L898.83 813.663C945.046 832.917 986.779 861.524 1021.41 897.685L1125.95 1006.85C1159.52 1041.92 1199.8 1069.89 1244.38 1089.12L1629.68 1255.28C1668.07 1271.84 1703.32 1294.9 1733.85 1323.46L1936.63 1513.06" stroke="#12BD67" stroke-opacity="0.12" stroke-width="19"/>
<path d="M-198.605 207L-17.428 309.17C25.0641 333.132 61.6823 366.263 89.7644 406.152V406.152C126.582 458.451 177.874 498.856 237.338 522.406L513.652 631.835C547.883 645.392 572.474 675.937 578.409 712.273V712.273C584.238 747.96 608.075 778.109 641.453 792.015L851.83 879.663C898.046 898.917 939.779 927.524 974.406 963.685L1078.95 1072.85C1112.52 1107.92 1152.8 1135.89 1197.38 1155.12L1582.68 1321.28C1621.07 1337.84 1656.32 1360.9 1686.85 1389.46L1889.63 1579.06" stroke="#12BD67" stroke-opacity="0.48" stroke-width="19"/>
<path d="M-245.605 273L-64.428 375.17C-21.9359 399.132 14.6823 432.263 42.7644 472.152V472.152C79.5821 524.451 130.874 564.856 190.338 588.406L466.652 697.835C500.883 711.392 525.474 741.937 531.409 778.273V778.273C537.238 813.96 561.075 844.109 594.453 858.015L804.83 945.663C851.046 964.917 892.779 993.524 927.406 1029.68L1031.95 1138.85C1065.52 1173.92 1105.8 1201.89 1150.38 1221.12L1535.68 1387.28C1574.07 1403.84 1609.32 1426.9 1639.85 1455.46L1842.63 1645.06" stroke="#12BD67" stroke-opacity="0.12" stroke-width="19"/>
<path d="M-292.605 339L-111.428 441.17C-68.9359 465.132 -32.3177 498.263 -4.23565 538.152V538.152C32.5821 590.451 83.8735 630.856 143.338 654.406L419.652 763.835C453.883 777.392 478.474 807.937 484.409 844.273V844.273C490.238 879.96 514.075 910.109 547.453 924.015L757.83 1011.66C804.046 1030.92 845.779 1059.52 880.406 1095.68L984.947 1204.85C1018.52 1239.92 1058.8 1267.89 1103.38 1287.12L1488.68 1453.28C1527.07 1469.84 1562.32 1492.9 1592.85 1521.46L1795.63 1711.06" stroke="#12BD67" stroke-opacity="0.48" stroke-width="19"/>
<path d="M-339.605 405L-158.428 507.17C-115.936 531.132 -79.3177 564.263 -51.2356 604.152V604.152C-14.4179 656.451 36.8735 696.856 96.3383 720.406L372.652 829.835C406.883 843.392 431.474 873.937 437.409 910.273V910.273C443.238 945.96 467.075 976.109 500.453 990.015L710.83 1077.66C757.046 1096.92 798.779 1125.52 833.406 1161.68L937.947 1270.85C971.525 1305.92 1011.8 1333.89 1056.38 1353.12L1441.68 1519.28C1480.07 1535.84 1515.32 1558.9 1545.85 1587.46L1748.63 1777.06" stroke="#12BD67" stroke-opacity="0.12" stroke-width="19"/>
</svg>
