<svg width="300" height="300" viewBox="0 0 300 300" fill="none" xmlns="http://www.w3.org/2000/svg">
<rect width="300" height="300" rx="50" fill="url(#paint0_linear_655_3585)"/>
<g filter="url(#filter0_d_655_3585)">
<path d="M222.917 38C214.411 38.01 206.256 41.3815 200.242 47.3751C194.227 53.3686 190.843 61.4947 190.833 69.9707C190.823 76.8975 193.094 83.6362 197.297 89.1532C197.297 89.1532 198.171 90.3012 198.315 90.4668L222.917 119.38L247.53 90.4524C247.659 90.2984 248.537 89.1532 248.537 89.1532L248.54 89.1445C252.74 83.6298 255.01 76.8942 255 69.9707C254.99 61.4947 251.606 53.3686 245.591 47.3751C239.577 41.3815 231.422 38.01 222.917 38ZM222.917 81.5964C220.609 81.5964 218.353 80.9146 216.435 79.6372C214.516 78.3598 213.021 76.5441 212.138 74.4197C211.255 72.2954 211.024 69.9579 211.474 67.7027C211.925 65.4475 213.035 63.376 214.667 61.75C216.299 60.1243 218.377 59.0169 220.64 58.5684C222.904 58.1198 225.249 58.3501 227.381 59.23C229.513 60.1098 231.335 61.6 232.617 63.5118C233.899 65.4236 234.583 67.6715 234.583 69.9707C234.58 73.0529 233.349 76.0076 231.162 78.1871C228.975 80.3665 226.01 81.5926 222.917 81.5964Z" fill="white"/>
</g>
<g filter="url(#filter1_d_655_3585)">
<path d="M74.1666 261.796C90.2749 261.796 103.333 248.783 103.333 232.731C103.333 216.68 90.2749 203.667 74.1666 203.667C58.0583 203.667 45 216.68 45 232.731C45 248.783 58.0583 261.796 74.1666 261.796Z" fill="white"/>
</g>
<path d="M74.1667 181.647V117.15C74.1667 95.9091 91.4465 78.6899 112.762 78.6899C133.871 78.6899 151.064 95.5882 151.354 116.621L152.642 209.823C152.906 228.972 168.559 244.357 187.777 244.357C207.184 244.357 222.917 228.68 222.917 209.341V141.4" stroke="white" stroke-width="19" stroke-linecap="round"/>
<defs>
<filter id="filter0_d_655_3585" x="190.833" y="38" width="64.1667" height="91.3799" filterUnits="userSpaceOnUse" color-interpolation-filters="sRGB">
<feFlood flood-opacity="0" result="BackgroundImageFix"/>
<feColorMatrix in="SourceAlpha" type="matrix" values="0 0 0 0 0 0 0 0 0 0 0 0 0 0 0 0 0 0 127 0" result="hardAlpha"/>
<feOffset dy="10"/>
<feComposite in2="hardAlpha" operator="out"/>
<feColorMatrix type="matrix" values="0 0 0 0 0 0 0 0 0 0 0 0 0 0 0 0 0 0 0.25 0"/>
<feBlend mode="normal" in2="BackgroundImageFix" result="effect1_dropShadow_655_3585"/>
<feBlend mode="normal" in="SourceGraphic" in2="effect1_dropShadow_655_3585" result="shape"/>
</filter>
<filter id="filter1_d_655_3585" x="45" y="203.667" width="58.3333" height="68.1284" filterUnits="userSpaceOnUse" color-interpolation-filters="sRGB">
<feFlood flood-opacity="0" result="BackgroundImageFix"/>
<feColorMatrix in="SourceAlpha" type="matrix" values="0 0 0 0 0 0 0 0 0 0 0 0 0 0 0 0 0 0 127 0" result="hardAlpha"/>
<feOffset dy="10"/>
<feComposite in2="hardAlpha" operator="out"/>
<feColorMatrix type="matrix" values="0 0 0 0 0 0 0 0 0 0 0 0 0 0 0 0 0 0 0.25 0"/>
<feBlend mode="normal" in2="BackgroundImageFix" result="effect1_dropShadow_655_3585"/>
<feBlend mode="normal" in="SourceGraphic" in2="effect1_dropShadow_655_3585" result="shape"/>
</filter>
<linearGradient id="paint0_linear_655_3585" x1="29" y1="19.5" x2="273.5" y2="283" gradientUnits="userSpaceOnUse">
<stop stop-color="#059669"/>
<stop offset="1" stop-color="#00BE88"/>
</linearGradient>
</defs>
</svg>
