<svg width="25" height="19" viewBox="0 0 25 19" fill="none" xmlns="http://www.w3.org/2000/svg">
<g id="flag">
<rect id="Mask" y="0.571411" width="25" height="17.8571" rx="2" fill="white"/>
<mask id="mask0_558_111" style="mask-type:luminance" maskUnits="userSpaceOnUse" x="0" y="0" width="25" height="19">
<rect id="Mask_2" y="0.571411" width="25" height="17.8571" rx="2" fill="white"/>
</mask>
<g mask="url(#mask0_558_111)">
<path id="Rectangle 511" fill-rule="evenodd" clip-rule="evenodd" d="M25 0.571411H0V1.76189H25V0.571411ZM25 2.95236H0V4.14284H25V2.95236ZM0 5.33332H25V6.52379H0V5.33332ZM25 7.71399H0V8.90446H25V7.71399ZM0 10.0948H25V11.2853H0V10.0948ZM25 12.4757H0V13.6662H25V12.4757ZM0 14.8575H25V16.048H0V14.8575ZM25 17.2384H0V18.4289H25V17.2384Z" fill="#D02F44"/>
<rect id="Rectangle 511_2" y="0.571411" width="10.7143" height="8.33333" fill="#46467F"/>
<g id="Oval 43" filter="url(#filter0_d_558_111)">
<path fill-rule="evenodd" clip-rule="evenodd" d="M2.38091 2.35708C2.38091 2.68582 2.11441 2.95232 1.78567 2.95232C1.45693 2.95232 1.19043 2.68582 1.19043 2.35708C1.19043 2.02834 1.45693 1.76184 1.78567 1.76184C2.11441 1.76184 2.38091 2.02834 2.38091 2.35708ZM4.76186 2.35708C4.76186 2.68582 4.49536 2.95232 4.16662 2.95232C3.83788 2.95232 3.57138 2.68582 3.57138 2.35708C3.57138 2.02834 3.83788 1.76184 4.16662 1.76184C4.49536 1.76184 4.76186 2.02834 4.76186 2.35708ZM6.54757 2.95232C6.87631 2.95232 7.14281 2.68582 7.14281 2.35708C7.14281 2.02834 6.87631 1.76184 6.54757 1.76184C6.21883 1.76184 5.95233 2.02834 5.95233 2.35708C5.95233 2.68582 6.21883 2.95232 6.54757 2.95232ZM9.52376 2.35708C9.52376 2.68582 9.25727 2.95232 8.92852 2.95232C8.59978 2.95232 8.33329 2.68582 8.33329 2.35708C8.33329 2.02834 8.59978 1.76184 8.92852 1.76184C9.25727 1.76184 9.52376 2.02834 9.52376 2.35708ZM2.97614 4.14279C3.30488 4.14279 3.57138 3.8763 3.57138 3.54756C3.57138 3.21881 3.30488 2.95232 2.97614 2.95232C2.6474 2.95232 2.3809 3.21881 2.3809 3.54756C2.3809 3.8763 2.6474 4.14279 2.97614 4.14279ZM5.95233 3.54756C5.95233 3.8763 5.68584 4.14279 5.3571 4.14279C5.02836 4.14279 4.76186 3.8763 4.76186 3.54756C4.76186 3.21881 5.02836 2.95232 5.3571 2.95232C5.68584 2.95232 5.95233 3.21881 5.95233 3.54756ZM7.73805 4.14279C8.06679 4.14279 8.33329 3.8763 8.33329 3.54756C8.33329 3.21881 8.06679 2.95232 7.73805 2.95232C7.40931 2.95232 7.14281 3.21881 7.14281 3.54756C7.14281 3.8763 7.40931 4.14279 7.73805 4.14279ZM9.52376 4.73803C9.52376 5.06677 9.25727 5.33327 8.92852 5.33327C8.59978 5.33327 8.33329 5.06677 8.33329 4.73803C8.33329 4.40929 8.59978 4.14279 8.92852 4.14279C9.25727 4.14279 9.52376 4.40929 9.52376 4.73803ZM6.54757 5.33327C6.87631 5.33327 7.14281 5.06677 7.14281 4.73803C7.14281 4.40929 6.87631 4.14279 6.54757 4.14279C6.21883 4.14279 5.95233 4.40929 5.95233 4.73803C5.95233 5.06677 6.21883 5.33327 6.54757 5.33327ZM4.76186 4.73803C4.76186 5.06677 4.49536 5.33327 4.16662 5.33327C3.83788 5.33327 3.57138 5.06677 3.57138 4.73803C3.57138 4.40929 3.83788 4.14279 4.16662 4.14279C4.49536 4.14279 4.76186 4.40929 4.76186 4.73803ZM1.78567 5.33327C2.11441 5.33327 2.38091 5.06677 2.38091 4.73803C2.38091 4.40929 2.11441 4.14279 1.78567 4.14279C1.45693 4.14279 1.19043 4.40929 1.19043 4.73803C1.19043 5.06677 1.45693 5.33327 1.78567 5.33327ZM3.57138 5.92851C3.57138 6.25725 3.30488 6.52375 2.97614 6.52375C2.6474 6.52375 2.3809 6.25725 2.3809 5.92851C2.3809 5.59977 2.6474 5.33327 2.97614 5.33327C3.30488 5.33327 3.57138 5.59977 3.57138 5.92851ZM5.3571 6.52375C5.68584 6.52375 5.95233 6.25725 5.95233 5.92851C5.95233 5.59977 5.68584 5.33327 5.3571 5.33327C5.02836 5.33327 4.76186 5.59977 4.76186 5.92851C4.76186 6.25725 5.02836 6.52375 5.3571 6.52375ZM8.33329 5.92851C8.33329 6.25725 8.06679 6.52375 7.73805 6.52375C7.40931 6.52375 7.14281 6.25725 7.14281 5.92851C7.14281 5.59977 7.40931 5.33327 7.73805 5.33327C8.06679 5.33327 8.33329 5.59977 8.33329 5.92851ZM8.92852 7.71422C9.25727 7.71422 9.52376 7.44772 9.52376 7.11898C9.52376 6.79024 9.25727 6.52375 8.92852 6.52375C8.59978 6.52375 8.33329 6.79024 8.33329 7.11898C8.33329 7.44772 8.59978 7.71422 8.92852 7.71422ZM7.14281 7.11898C7.14281 7.44772 6.87631 7.71422 6.54757 7.71422C6.21883 7.71422 5.95233 7.44772 5.95233 7.11898C5.95233 6.79024 6.21883 6.52375 6.54757 6.52375C6.87631 6.52375 7.14281 6.79024 7.14281 7.11898ZM4.16662 7.71422C4.49536 7.71422 4.76186 7.44772 4.76186 7.11898C4.76186 6.79024 4.49536 6.52375 4.16662 6.52375C3.83788 6.52375 3.57138 6.79024 3.57138 7.11898C3.57138 7.44772 3.83788 7.71422 4.16662 7.71422ZM2.38091 7.11898C2.38091 7.44772 2.11441 7.71422 1.78567 7.71422C1.45693 7.71422 1.19043 7.44772 1.19043 7.11898C1.19043 6.79024 1.45693 6.52375 1.78567 6.52375C2.11441 6.52375 2.38091 6.79024 2.38091 7.11898Z" fill="url(#paint0_linear_558_111)"/>
</g>
</g>
</g>
<defs>
<filter id="filter0_d_558_111" x="1.19043" y="1.76184" width="8.3335" height="6.95239" filterUnits="userSpaceOnUse" color-interpolation-filters="sRGB">
<feFlood flood-opacity="0" result="BackgroundImageFix"/>
<feColorMatrix in="SourceAlpha" type="matrix" values="0 0 0 0 0 0 0 0 0 0 0 0 0 0 0 0 0 0 127 0" result="hardAlpha"/>
<feOffset dy="1"/>
<feColorMatrix type="matrix" values="0 0 0 0 0 0 0 0 0 0 0 0 0 0 0 0 0 0 0.06 0"/>
<feBlend mode="normal" in2="BackgroundImageFix" result="effect1_dropShadow_558_111"/>
<feBlend mode="normal" in="SourceGraphic" in2="effect1_dropShadow_558_111" result="shape"/>
</filter>
<linearGradient id="paint0_linear_558_111" x1="1.19043" y1="1.76184" x2="1.19043" y2="7.71422" gradientUnits="userSpaceOnUse">
<stop stop-color="white"/>
<stop offset="1" stop-color="#F0F0F0"/>
</linearGradient>
</defs>
</svg>
