<svg width="1159" height="674" viewBox="0 0 1159 674" fill="none" xmlns="http://www.w3.org/2000/svg">
<path fill-rule="evenodd" clip-rule="evenodd" d="M73.5032 7.05946C75.4955 2.87463 71.1269 -1.49565 66.9404 0.496659L47.8067 9.6081C43.8844 11.4757 44.1273 17.1391 48.1956 18.6637L52.6906 20.3492C52.9099 20.4314 53.109 20.5597 53.2746 20.7252C53.4402 20.8908 53.5684 21.09 53.6507 21.3092L55.3361 25.8058C56.8623 29.8725 62.5242 30.1154 64.3918 26.1931L73.5032 7.05946Z" fill="#00BD5E"/>
<path fill-rule="evenodd" clip-rule="evenodd" d="M87.5032 65.0595C89.4955 60.8746 85.1269 56.5044 80.9404 58.4967L61.8067 67.6081C57.8844 69.4757 58.1273 75.1391 62.1956 76.6637L66.6906 78.3492C66.9099 78.4314 67.109 78.5597 67.2746 78.7252C67.4402 78.8908 67.5684 79.09 67.6507 79.3092L69.3361 83.8058C70.8623 87.8725 76.5242 88.1154 78.3918 84.1931L87.5032 65.0595Z" fill="#00BD5E"/>
<path fill-rule="evenodd" clip-rule="evenodd" d="M162.195 31.4412C165.424 24.6589 158.344 17.576 151.559 20.8049L120.549 35.5717C114.192 38.5985 114.586 47.7772 121.179 50.2481L128.464 52.9797C128.819 53.113 129.142 53.3208 129.411 53.5892C129.679 53.8576 129.887 54.1803 130.02 54.5356L132.752 61.8233C135.225 68.4141 144.401 68.8077 147.428 62.451L162.195 31.4412Z" fill="#00BD5E"/>
<path fill-rule="evenodd" clip-rule="evenodd" d="M88 102C88 77.6995 107.699 58 132 58H1027C1051.3 58 1071 77.6995 1071 102V102C1071 126.301 1051.3 146 1027 146H952.715C928.691 146 909.215 165.476 909.215 189.5V189.5C909.215 213.524 928.691 233 952.715 233H1114.5C1139.08 233 1159 252.923 1159 277.5V277.5C1159 302.077 1139.08 322 1114.5 322H978.689C954.471 322 934.839 341.633 934.839 365.85V365.85C934.839 390.068 954.471 409.701 978.689 409.701L993.245 409.701C1017.59 409.701 1037.33 429.44 1037.33 453.788V453.788C1037.33 478.137 1017.59 497.876 993.245 497.876H938.958C914.623 497.876 894.896 517.603 894.896 541.938V541.938C894.896 566.273 914.623 586 938.958 586H1085C1109.3 586 1129 605.699 1129 630V630C1129 654.301 1109.3 674 1085 674H74C49.6995 674 30 654.301 30 630V630C30 605.699 49.6995 586 74 586H220.042C244.377 586 264.104 566.273 264.104 541.938V541.938C264.104 517.603 244.377 497.876 220.042 497.876H167.262C142.913 497.876 123.174 478.137 123.174 453.788V453.788C123.174 429.44 142.913 409.701 167.262 409.701L180.311 409.701C204.529 409.701 224.161 390.068 224.161 365.85V365.85C224.161 341.633 204.529 322 180.311 322H44.5C19.9233 322 0 302.077 0 277.5V277.5C0 252.923 19.9233 233 44.5 233H206.285C230.309 233 249.785 213.524 249.785 189.5V189.5C249.785 165.476 230.309 146 206.285 146H132C107.699 146 88 126.301 88 102V102Z" fill="#00BD5E" fill-opacity="0.12"/>
<path d="M806.466 446.963C790.366 446.963 775.55 444.047 762.016 438.213C748.716 432.38 737.983 423.513 729.816 411.613C722.323 400.153 718.16 385.778 717.328 368.489C717.247 366.804 718.606 365.413 720.292 365.413H765.412C767.031 365.413 768.348 366.7 768.488 368.313C769.018 374.403 770.594 379.97 773.216 385.013C776.25 390.613 780.566 395.047 786.166 398.313C791.766 401.58 798.533 403.213 806.466 403.213C813.7 403.213 819.883 401.813 825.016 399.013C830.383 395.98 834.35 392.13 836.916 387.463C839.716 382.563 841.116 376.963 841.116 370.663C841.116 363.43 839.366 357.363 835.866 352.463C832.366 347.33 827.35 343.48 820.816 340.913C814.283 338.113 806.7 336.713 798.066 336.713H782.866C781.209 336.713 779.866 335.37 779.866 333.713V297.013C779.866 295.356 781.209 294.013 782.866 294.013H798.066C808.1 294.013 816.85 291.68 824.316 287.013C831.783 282.113 835.516 274.647 835.516 264.613C835.516 256.213 832.833 249.68 827.466 245.013C822.1 240.113 814.983 237.663 806.116 237.663C795.383 237.663 787.216 240.813 781.616 247.113C776.62 252.525 773.574 258.959 772.478 266.414C772.251 267.96 770.963 269.163 769.4 269.163H724.552C722.843 269.163 721.475 267.737 721.599 266.033C722.658 251.509 726.563 239.019 733.316 228.563C740.55 217.13 750.35 208.497 762.716 202.663C775.316 196.597 789.783 193.563 806.116 193.563C823.383 193.563 838.083 196.597 850.216 202.663C862.35 208.73 871.45 216.897 877.516 227.163C883.816 237.197 886.966 248.163 886.966 260.063C886.966 270.097 885.1 278.847 881.366 286.313C877.633 293.547 872.733 299.613 866.666 304.513C863.896 306.644 861.053 308.507 858.137 310.103C855.416 311.592 855.697 316.877 858.553 318.088C863.068 320.004 867.172 322.479 870.866 325.513C877.633 330.647 882.883 337.297 886.616 345.463C890.35 353.397 892.216 362.497 892.216 372.763C892.216 386.297 888.833 398.78 882.066 410.213C875.533 421.413 865.85 430.397 853.016 437.163C840.416 443.697 824.9 446.963 806.466 446.963Z" fill="#00BD5E"/>
<path d="M359 442.763C357.343 442.763 356 441.42 356 439.763V403.763C356 402.106 354.657 400.763 353 400.763H240C238.343 400.763 237 399.42 237 397.763V359.706C237 359.092 237.188 358.493 237.54 357.99L348.455 199.046C349.016 198.242 349.934 197.763 350.915 197.763H405.5C407.157 197.763 408.5 199.106 408.5 200.763V352.263C408.5 353.92 409.843 355.263 411.5 355.263H435.95C437.607 355.263 438.95 356.606 438.95 358.263V397.763C438.95 399.42 437.607 400.763 435.95 400.763H411.5C409.843 400.763 408.5 402.106 408.5 403.763V439.763C408.5 441.42 407.157 442.763 405.5 442.763H359ZM295.78 350.593C294.444 352.586 295.873 355.263 298.272 355.263H356.5C358.157 355.263 359.5 353.92 359.5 352.263V265.378C359.5 262.414 355.658 261.246 354.008 263.708L295.78 350.593Z" fill="#00BD5E"/>
<path fill-rule="evenodd" clip-rule="evenodd" d="M577.782 173C532.846 173 496.417 209.325 496.417 254.134V290.425C496.417 291.141 496.16 291.832 495.699 292.381C480.145 310.907 470.782 334.778 470.782 360.83C470.782 419.757 518.687 467.526 577.782 467.526C636.877 467.526 684.782 419.757 684.782 360.83C684.782 334.778 675.419 310.907 659.865 292.381C659.404 291.832 659.147 291.141 659.147 290.425V254.134C659.147 209.325 622.719 173 577.782 173ZM577.782 254.134C593.285 254.134 608.019 257.421 621.319 263.336C623.357 264.242 625.709 262.784 625.709 260.554V254.134C625.709 227.739 604.251 206.343 577.782 206.343C551.313 206.343 529.855 227.739 529.855 254.134V260.554C529.855 262.784 532.207 264.242 534.245 263.336C547.545 257.421 562.279 254.134 577.782 254.134ZM577.782 434.184C618.41 434.184 651.345 401.342 651.345 360.83C651.345 320.318 618.41 287.476 577.782 287.476C537.154 287.476 504.219 320.318 504.219 360.83C504.219 401.342 537.154 434.184 577.782 434.184Z" fill="#00BD5E"/>
<path d="M617.907 360.83C617.907 382.928 599.942 400.841 577.782 400.841C555.622 400.841 537.657 382.928 537.657 360.83C537.657 338.732 555.622 320.819 577.782 320.819C599.942 320.819 617.907 338.732 617.907 360.83Z" fill="#00BD5E"/>
<path d="M757.213 431.045L757.225 431.05C771.03 437.001 786.12 439.963 802.466 439.963C821.128 439.963 836.98 436.657 849.937 429.939L849.949 429.932C863.071 423.014 873.047 413.785 879.791 402.227C886.741 390.48 890.216 377.646 890.216 363.763C890.216 353.257 888.306 343.862 884.432 335.624C880.575 327.19 875.134 320.283 868.106 314.943C864.268 311.795 860.008 309.23 855.334 307.247C854.878 307.054 854.316 306.332 854.251 305.095C854.186 303.857 854.67 303.091 855.097 302.857C858.109 301.21 861.038 299.289 863.886 297.098L863.905 297.084L863.923 297.069C870.215 291.987 875.289 285.699 879.144 278.23L879.15 278.219L879.155 278.208C883.053 270.413 884.966 261.345 884.966 251.063C884.966 238.798 881.716 227.47 875.225 217.123C868.936 206.492 859.531 198.084 847.111 191.874C834.635 185.636 819.611 182.563 802.116 182.563C785.536 182.563 770.766 185.643 757.855 191.858C745.156 197.85 735.068 206.734 727.632 218.485C720.671 229.266 716.683 242.09 715.604 256.887C715.393 259.788 717.72 262.163 720.552 262.163H765.4C768.035 262.163 770.098 260.151 770.457 257.705C771.496 250.639 774.37 244.579 779.086 239.47L779.099 239.456L779.111 239.442C784.233 233.68 791.787 230.663 802.116 230.663C810.599 230.663 817.197 232.997 822.118 237.49L822.136 237.507L822.154 237.522C827.004 241.74 829.516 247.677 829.516 255.613C829.516 265.062 826.052 271.849 819.238 276.329C812.136 280.762 803.77 283.013 794.066 283.013H778.866C776.105 283.013 773.866 285.252 773.866 288.013V324.713C773.866 327.475 776.105 329.713 778.866 329.713H794.066C802.486 329.713 809.791 331.078 816.029 333.751L816.057 333.764L816.085 333.775C822.295 336.214 826.969 339.83 830.214 344.59L830.226 344.608L830.239 344.626C833.451 349.123 835.116 354.761 835.116 361.663C835.116 367.657 833.788 372.907 831.18 377.471L831.172 377.485L831.164 377.499C828.805 381.788 825.134 385.386 820.046 388.265C815.27 390.866 809.437 392.213 802.466 392.213C794.808 392.213 788.407 390.638 783.174 387.586C777.889 384.503 773.837 380.339 770.982 375.074C768.495 370.285 766.989 364.981 766.481 359.14C766.257 356.563 764.137 354.413 761.412 354.413H716.292C713.493 354.413 711.193 356.73 711.331 359.585C712.175 377.137 716.409 391.88 724.142 403.708L724.155 403.726L724.167 403.745C732.546 415.955 743.574 425.063 757.213 431.045ZM350 394.763V430.763C350 433.525 352.239 435.763 355 435.763H401.5C404.261 435.763 406.5 433.525 406.5 430.763V394.763C406.5 394.211 406.948 393.763 407.5 393.763H431.95C434.711 393.763 436.95 391.525 436.95 388.763V349.263C436.95 346.502 434.711 344.263 431.95 344.263H407.5C406.948 344.263 406.5 343.816 406.5 343.263V191.763C406.5 189.002 404.261 186.763 401.5 186.763H346.915C345.281 186.763 343.75 187.562 342.814 188.902L231.9 347.845C231.314 348.684 231 349.683 231 350.706V388.763C231 391.525 233.239 393.763 236 393.763H349C349.552 393.763 350 394.211 350 394.763ZM352.5 344.263H294.272C293.472 344.263 292.996 343.371 293.441 342.707L351.669 255.822C352.219 255.001 353.5 255.39 353.5 256.378V343.263C353.5 343.816 353.052 344.263 352.5 344.263ZM573.782 162C527.746 162 490.417 199.215 490.417 245.134V281.425C490.417 281.66 490.333 281.898 490.167 282.095C474.323 300.968 464.782 325.29 464.782 351.83C464.782 411.867 513.588 460.526 573.782 460.526C633.976 460.526 682.782 411.867 682.782 351.83C682.782 325.29 673.241 300.968 657.397 282.095C657.231 281.898 657.147 281.66 657.147 281.425V245.134C657.147 199.215 619.818 162 573.782 162ZM618.132 252.509C604.58 246.482 589.571 243.134 573.782 243.134C557.993 243.134 542.984 246.482 529.433 252.509C528.651 252.856 527.855 252.265 527.855 251.554V245.134C527.855 219.849 548.412 199.343 573.782 199.343C599.152 199.343 619.709 219.849 619.709 245.134V251.554C619.709 252.265 618.913 252.856 618.132 252.509ZM645.345 351.83C645.345 391.232 613.31 423.184 573.782 423.184C534.254 423.184 502.219 391.232 502.219 351.83C502.219 312.428 534.254 280.476 573.782 280.476C613.31 280.476 645.345 312.428 645.345 351.83ZM573.782 393.841C597.042 393.841 615.907 375.037 615.907 351.83C615.907 328.623 597.042 309.819 573.782 309.819C550.522 309.819 531.657 328.623 531.657 351.83C531.657 375.037 550.522 393.841 573.782 393.841Z" stroke="#001209" stroke-width="4"/>
<rect x="955" y="85" width="183" height="11" rx="5.5" fill="#00BD5E"/>
<rect x="18" y="643" width="183" height="11" rx="5.5" fill="#00BD5E"/>
<path d="M1047.37 587.625C1048.44 585.598 1049 583.334 1049 581.037C1049 573.284 1042.73 567 1035 567C1027.27 567 1021 573.284 1021 581.037C1020.99 584.348 1022.16 587.553 1024.29 590.082L1024.31 590.102L1024.33 590.119H1024.29L1032.6 598.962C1032.91 599.29 1033.28 599.551 1033.69 599.729C1034.11 599.908 1034.55 600 1035 600C1035.45 600 1035.89 599.908 1036.31 599.729C1036.72 599.551 1037.09 599.29 1037.4 598.962L1045.71 590.119H1045.67L1045.69 590.103L1045.69 590.102C1045.75 590.031 1045.81 589.959 1045.87 589.887C1046.44 589.183 1046.94 588.426 1047.37 587.625ZM1035 586.403C1033.69 586.403 1032.44 585.881 1031.51 584.952C1030.58 584.023 1030.06 582.762 1030.06 581.449C1030.06 580.135 1030.58 578.875 1031.51 577.945C1032.44 577.016 1033.69 576.494 1035 576.494C1036.31 576.494 1037.57 577.016 1038.5 577.945C1039.42 578.875 1039.95 580.135 1039.95 581.449C1039.95 582.762 1039.42 584.023 1038.5 584.952C1037.57 585.881 1036.31 586.403 1035 586.403Z" fill="#00BD5E"/>
<path d="M1064.83 605.375C1065.6 603.962 1066 602.384 1066 600.783C1066 595.38 1061.52 591 1056 591C1050.48 591 1046 595.38 1046 600.783C1046 603.091 1046.83 605.325 1048.35 607.087L1048.36 607.102L1048.38 607.113H1048.35L1054.29 613.277C1054.51 613.505 1054.77 613.687 1055.07 613.811C1055.36 613.936 1055.68 614 1056 614C1056.32 614 1056.64 613.936 1056.93 613.811C1057.23 613.687 1057.49 613.505 1057.71 613.277L1063.65 607.113H1063.62L1063.63 607.102L1063.64 607.101C1063.68 607.052 1063.72 607.002 1063.76 606.952C1064.17 606.461 1064.53 605.934 1064.83 605.375ZM1056 604.523C1055.07 604.523 1054.17 604.159 1053.51 603.512C1052.85 602.864 1052.47 601.986 1052.47 601.07C1052.47 600.154 1052.85 599.276 1053.51 598.629C1054.17 597.981 1055.07 597.617 1056 597.617C1056.94 597.617 1057.84 597.981 1058.5 598.629C1059.16 599.276 1059.53 600.154 1059.53 601.07C1059.53 601.986 1059.16 602.864 1058.5 603.512C1057.84 604.159 1056.94 604.523 1056 604.523Z" fill="#00BD5E"/>
<path d="M1093.48 582.125C1094.48 580.343 1095 578.354 1095 576.335C1095 569.523 1089.18 564 1082 564C1074.82 564 1069 569.523 1069 576.335C1068.99 579.245 1070.08 582.062 1072.06 584.284L1072.07 584.302L1072.09 584.317H1072.06L1079.77 592.088C1080.06 592.376 1080.4 592.605 1080.79 592.762C1081.17 592.919 1081.58 593 1082 593C1082.42 593 1082.83 592.919 1083.21 592.762C1083.6 592.605 1083.94 592.376 1084.23 592.088L1091.94 584.317H1091.91L1091.92 584.303L1091.93 584.301C1091.98 584.239 1092.04 584.176 1092.09 584.113C1092.62 583.494 1093.09 582.829 1093.48 582.125ZM1082 581.051C1080.79 581.051 1079.62 580.592 1078.76 579.776C1077.9 578.959 1077.42 577.852 1077.42 576.697C1077.42 575.543 1077.9 574.435 1078.76 573.619C1079.62 572.802 1080.79 572.344 1082 572.344C1083.22 572.344 1084.39 572.802 1085.25 573.619C1086.11 574.435 1086.59 575.543 1086.59 576.697C1086.59 577.852 1086.11 578.959 1085.25 579.776C1084.39 580.592 1083.22 581.051 1082 581.051Z" fill="#00BD5E"/>
</svg>
