<svg width="38" height="38" viewBox="0 0 38 38" fill="none" xmlns="http://www.w3.org/2000/svg">
<g clip-path="url(#clip0_9_131)">
<path d="M13.2375 1.24985C9.44071 2.56699 6.16637 5.06697 3.89541 8.38258C1.62446 11.6982 0.476602 15.6547 0.620441 19.6708C0.764279 23.687 2.19223 27.5513 4.69456 30.6959C7.19688 33.8406 10.6417 36.0999 14.523 37.142C17.6696 37.954 20.9664 37.9896 24.1298 37.246C26.9956 36.6022 29.6451 35.2253 31.8189 33.25C34.0813 31.1314 35.7235 28.4361 36.5689 25.4541C37.4875 22.2112 37.651 18.8009 37.0469 15.485H19.3769V22.8149H29.6102C29.4056 23.9839 28.9674 25.0997 28.3216 26.0954C27.6758 27.0912 26.8357 27.9464 25.8517 28.6099C24.6023 29.4368 23.1936 29.993 21.7163 30.2427C20.2347 30.5182 18.715 30.5182 17.2334 30.2427C15.7317 29.9325 14.3111 29.3127 13.0623 28.4228C11.0559 27.0025 9.54935 24.9848 8.75766 22.6575C7.9528 20.2866 7.9528 17.7164 8.75766 15.3455C9.32121 13.6836 10.2528 12.1705 11.483 10.9191C12.8907 9.46067 14.673 8.41819 16.6342 7.90602C18.5954 7.39385 20.6598 7.43177 22.6009 8.01564C24.1174 8.48091 25.5041 9.29421 26.6503 10.3906C27.8042 9.24272 28.956 8.09183 30.1059 6.93798C30.6997 6.31751 31.3469 5.72673 31.9317 5.09142C30.1817 3.46311 28.1277 2.19601 25.8873 1.36267C21.8074 -0.118771 17.3432 -0.158583 13.2375 1.24985Z" fill="white"/>
<path d="M13.2376 1.24983C17.343 -0.159562 21.8072 -0.120798 25.8875 1.35968C28.1282 2.19868 30.1813 3.47188 31.9289 5.10624C31.3351 5.74155 30.7087 6.3353 30.1031 6.9528C28.9512 8.1027 27.8003 9.24863 26.6504 10.3906C25.5042 9.29419 24.1175 8.48089 22.601 8.01561C20.6606 7.4297 18.5963 7.38959 16.6345 7.89966C14.6728 8.40974 12.8894 9.4503 11.4801 10.9072C10.25 12.1586 9.31835 13.6717 8.7548 15.3336L2.60059 10.5687C4.80342 6.2004 8.6175 2.85897 13.2376 1.24983Z" fill="#E33629"/>
<path d="M0.967726 15.289C1.29827 13.6496 1.84744 12.062 2.60054 10.5687L8.75476 15.3454C7.9499 17.7163 7.9499 20.2866 8.75476 22.6575C6.70434 24.2408 4.65293 25.8321 2.60054 27.4312C0.715829 23.6797 0.141026 19.4052 0.967726 15.289Z" fill="#F8BD00"/>
<path d="M19.3768 15.4821H37.0468C37.6509 18.798 37.4874 22.2082 36.5688 25.4511C35.7235 28.4332 34.0813 31.1284 31.8188 33.2471C29.8327 31.6974 27.8377 30.1596 25.8517 28.6099C26.8363 27.9457 27.6768 27.0896 28.3226 26.0928C28.9684 25.096 29.4063 23.979 29.6101 22.8089H19.3768C19.3738 20.3686 19.3768 17.9253 19.3768 15.4821Z" fill="#587DBD"/>
<path d="M2.59766 27.4312C4.65005 25.8479 6.70146 24.2566 8.75188 22.6575C9.54515 24.9856 11.0539 27.0034 13.0625 28.4228C14.3152 29.3086 15.7388 29.9233 17.2425 30.2278C18.7241 30.5033 20.2437 30.5033 21.7253 30.2278C23.2026 29.9781 24.6113 29.4219 25.8608 28.595C27.8469 30.1447 29.8419 31.6825 31.828 33.2322C29.6545 35.2085 27.005 36.5865 24.1389 37.2311C20.9754 37.9748 17.6787 37.9391 14.532 37.1272C12.0433 36.4627 9.71873 35.2913 7.70391 33.6864C5.57154 31.9931 3.82979 29.8594 2.59766 27.4312Z" fill="#319F43"/>
</g>
<defs>
<clipPath id="clip0_9_131">
<rect width="38" height="38" fill="white"/>
</clipPath>
</defs>
</svg>
