<svg width="139" height="37" viewBox="0 0 139 37" fill="none" xmlns="http://www.w3.org/2000/svg">
<g clip-path="url(#clip0_502_3385)">
<path d="M28.8056 0C27.4284 0.00161896 26.1082 0.547488 25.1344 1.51787C24.1606 2.48825 23.6127 3.80389 23.6111 5.17621C23.6094 6.29768 23.9772 7.38871 24.6576 8.28194C24.6576 8.28194 24.7991 8.46781 24.8224 8.49463L28.8056 13.1758L32.7906 8.49229C32.8114 8.46736 32.9536 8.28194 32.9536 8.28194L32.9541 8.28054C33.6341 7.38768 34.0017 6.29716 34 5.17621C33.9983 3.80389 33.4505 2.48825 32.4767 1.51787C31.5029 0.547488 30.1826 0.00161896 28.8056 0ZM28.8056 7.05847C28.4319 7.05847 28.0667 6.94807 27.7562 6.74126C27.4454 6.53444 27.2033 6.24047 27.0604 5.89653C26.9174 5.55259 26.8801 5.17413 26.9529 4.80901C27.0259 4.44388 27.2057 4.10849 27.4698 3.84524C27.7342 3.58202 28.0706 3.40274 28.4369 3.33011C28.8035 3.25749 29.1832 3.29478 29.5283 3.43724C29.8735 3.57969 30.1685 3.82095 30.3761 4.13049C30.5837 4.44002 30.6943 4.80395 30.6943 5.17621C30.6938 5.67523 30.4946 6.15362 30.1405 6.50648C29.7864 6.85934 29.3063 7.05785 28.8056 7.05847Z" fill="#28A265"/>
<path d="M4.72222 36.2336C7.33022 36.2336 9.44443 34.1268 9.44443 31.5279C9.44443 28.9291 7.33022 26.8223 4.72222 26.8223C2.11421 26.8223 0 28.9291 0 31.5279C0 34.1268 2.11421 36.2336 4.72222 36.2336Z" fill="#28A265"/>
<path d="M4.72217 23.2571V12.8148C4.72217 9.37575 7.51984 6.58789 10.971 6.58789C14.3885 6.58789 17.1721 9.32381 17.2192 12.7291L17.4276 27.8189C17.4704 30.9192 20.0048 33.4102 23.1163 33.4102C26.2582 33.4102 28.8056 30.872 28.8056 27.7409V16.7409" stroke="black" stroke-width="3" stroke-linecap="round"/>
</g>
<path d="M51.352 27.1334V10.3334H53.68L63.952 24.0854L63.568 24.3014C63.456 23.6454 63.36 22.8854 63.28 22.0214C63.216 21.1574 63.168 20.2054 63.136 19.1654C63.104 18.1254 63.088 17.0214 63.088 15.8534V10.3334H65.68V27.1334H63.304L53.2 13.8854L53.464 13.5494C53.576 14.7654 53.664 15.7654 53.728 16.5494C53.792 17.3174 53.84 17.9334 53.872 18.3974C53.904 18.8614 53.92 19.2294 53.92 19.5014C53.936 19.7574 53.944 19.9734 53.944 20.1494V27.1334H51.352ZM77.2233 27.1334V18.9254C77.2233 18.2214 76.9673 17.6534 76.4553 17.2214C75.9593 16.7734 75.3273 16.5494 74.5593 16.5494C73.8553 16.5494 73.2153 16.6934 72.6393 16.9814C72.0793 17.2694 71.5673 17.7094 71.1033 18.3014L69.4953 16.6934C70.2473 15.8774 71.0553 15.2694 71.9193 14.8694C72.7993 14.4694 73.7433 14.2694 74.7513 14.2694C75.7113 14.2694 76.5433 14.4294 77.2473 14.7494C77.9513 15.0694 78.4953 15.5414 78.8793 16.1654C79.2633 16.7734 79.4553 17.5174 79.4553 18.3974V27.1334H77.2233ZM73.4553 27.3734C72.6393 27.3734 71.9113 27.2134 71.2713 26.8934C70.6313 26.5734 70.1193 26.1334 69.7353 25.5734C69.3673 24.9974 69.1833 24.3254 69.1833 23.5574C69.1833 22.8854 69.3033 22.2934 69.5433 21.7814C69.7833 21.2694 70.1353 20.8454 70.5993 20.5094C71.0793 20.1734 71.6713 19.9174 72.3753 19.7414C73.0953 19.5654 73.9193 19.4774 74.8473 19.4774H78.3513L78.1353 21.4454H74.5353C74.0553 21.4454 73.6233 21.4934 73.2393 21.5894C72.8713 21.6694 72.5513 21.8054 72.2793 21.9974C72.0233 22.1734 71.8313 22.3894 71.7033 22.6454C71.5753 22.8854 71.5113 23.1734 71.5113 23.5094C71.5113 23.8614 71.5993 24.1734 71.7753 24.4454C71.9513 24.7014 72.1913 24.9014 72.4953 25.0454C72.7993 25.1894 73.1513 25.2614 73.5513 25.2614C74.1273 25.2614 74.6713 25.1654 75.1833 24.9734C75.7113 24.7654 76.1753 24.4854 76.5753 24.1334C76.9913 23.7814 77.3113 23.3894 77.5353 22.9574L78.1113 24.5654C77.7753 25.1254 77.3593 25.6134 76.8633 26.0294C76.3673 26.4454 75.8313 26.7734 75.2553 27.0134C74.6793 27.2534 74.0793 27.3734 73.4553 27.3734ZM86.4263 27.1334L81.0983 14.5334H83.7623L87.6023 23.9654L87.1463 24.1814L91.2503 14.5334H93.7943L88.2023 27.1334H86.4263ZM96.4641 27.1334V14.5334H98.9361V27.1334H96.4641ZM97.6641 11.7494C97.1361 11.7494 96.7281 11.6134 96.4401 11.3414C96.1521 11.0694 96.0081 10.6854 96.0081 10.1894C96.0081 9.72536 96.1521 9.34936 96.4401 9.06136C96.7441 8.77336 97.1521 8.62936 97.6641 8.62936C98.1921 8.62936 98.6001 8.76536 98.8881 9.03736C99.1761 9.30936 99.3201 9.69336 99.3201 10.1894C99.3201 10.6534 99.1681 11.0294 98.8641 11.3174C98.5761 11.6054 98.1761 11.7494 97.6641 11.7494Z" fill="#1F1F1F"/>
<path d="M110.872 27.3734C109.656 27.3734 108.52 27.1574 107.464 26.7254C106.408 26.2774 105.48 25.6614 104.68 24.8774C103.88 24.0934 103.256 23.1814 102.808 22.1414C102.376 21.0854 102.16 19.9494 102.16 18.7334C102.16 17.5334 102.376 16.4134 102.808 15.3734C103.256 14.3334 103.872 13.4294 104.656 12.6614C105.456 11.8774 106.384 11.2694 107.44 10.8374C108.496 10.4054 109.632 10.1894 110.848 10.1894C111.696 10.1894 112.52 10.3094 113.32 10.5494C114.136 10.7894 114.872 11.1254 115.528 11.5574C116.184 11.9894 116.72 12.4854 117.136 13.0454L115.456 14.7974C114.736 14.1094 113.984 13.5894 113.2 13.2374C112.432 12.8854 111.648 12.7094 110.848 12.7094C109.984 12.7094 109.184 12.8614 108.448 13.1654C107.728 13.4694 107.088 13.8934 106.528 14.4374C105.984 14.9814 105.56 15.6214 105.256 16.3574C104.952 17.0774 104.8 17.8694 104.8 18.7334C104.8 19.5654 104.96 20.3574 105.28 21.1094C105.6 21.8454 106.04 22.4934 106.6 23.0534C107.176 23.6134 107.832 24.0534 108.568 24.3734C109.32 24.6934 110.112 24.8534 110.944 24.8534C111.568 24.8534 112.16 24.7654 112.72 24.5894C113.28 24.3974 113.776 24.1334 114.208 23.7974C114.64 23.4614 114.976 23.0774 115.216 22.6454C115.456 22.1974 115.576 21.7254 115.576 21.2294V20.7494L115.936 21.0854H110.8V18.5174H118.24C118.272 18.6934 118.296 18.8694 118.312 19.0454C118.328 19.2054 118.336 19.3654 118.336 19.5254C118.352 19.6694 118.36 19.8134 118.36 19.9574C118.36 21.0614 118.168 22.0694 117.784 22.9814C117.4 23.8774 116.864 24.6534 116.176 25.3094C115.504 25.9654 114.712 26.4774 113.8 26.8454C112.904 27.1974 111.928 27.3734 110.872 27.3734ZM128.767 27.3734C127.583 27.3734 126.487 27.1574 125.479 26.7254C124.487 26.2934 123.615 25.6934 122.863 24.9254C122.127 24.1414 121.551 23.2294 121.135 22.1894C120.735 21.1334 120.535 19.9814 120.535 18.7334C120.535 17.4854 120.735 16.3414 121.135 15.3014C121.551 14.2454 122.127 13.3334 122.863 12.5654C123.615 11.7814 124.487 11.1734 125.479 10.7414C126.487 10.3094 127.583 10.0934 128.767 10.0934C129.951 10.0934 131.039 10.3094 132.031 10.7414C133.039 11.1734 133.911 11.7814 134.647 12.5654C135.399 13.3494 135.975 14.2694 136.375 15.3254C136.791 16.3654 136.999 17.5014 136.999 18.7334C136.999 19.9654 136.791 21.1094 136.375 22.1654C135.975 23.2054 135.399 24.1174 134.647 24.9014C133.911 25.6854 133.039 26.2934 132.031 26.7254C131.039 27.1574 129.951 27.3734 128.767 27.3734ZM128.767 24.8534C129.583 24.8534 130.327 24.7014 130.999 24.3974C131.687 24.0934 132.279 23.6694 132.775 23.1254C133.271 22.5654 133.655 21.9174 133.927 21.1814C134.215 20.4294 134.359 19.6134 134.359 18.7334C134.359 17.8534 134.215 17.0454 133.927 16.3094C133.655 15.5574 133.271 14.9094 132.775 14.3654C132.279 13.8054 131.687 13.3734 130.999 13.0694C130.327 12.7654 129.583 12.6134 128.767 12.6134C127.951 12.6134 127.199 12.7654 126.511 13.0694C125.839 13.3734 125.247 13.7974 124.735 14.3414C124.239 14.8854 123.855 15.5334 123.583 16.2854C123.311 17.0214 123.175 17.8374 123.175 18.7334C123.175 19.9174 123.415 20.9734 123.895 21.9014C124.375 22.8134 125.031 23.5334 125.863 24.0614C126.711 24.5894 127.679 24.8534 128.767 24.8534Z" fill="#28A265"/>
<defs>
<clipPath id="clip0_502_3385">
<rect width="34" height="36.2667" fill="white"/>
</clipPath>
</defs>
</svg>
