<svg width="50" height="18" viewBox="0 0 50 18" fill="none" xmlns="http://www.w3.org/2000/svg">
<path d="M41.0618 9.7255C40.3291 9.7255 39.6129 9.94277 39.0037 10.3498C38.3945 10.7569 37.9196 11.3355 37.6392 12.0124C37.3589 12.6893 37.2855 13.4342 37.4284 14.1528C37.5714 14.8714 37.9242 15.5315 38.4423 16.0496C38.9604 16.5677 39.6205 16.9206 40.3391 17.0635C41.0577 17.2064 41.8026 17.1331 42.4795 16.8527C43.1564 16.5723 43.735 16.0975 44.1421 15.4882C44.5492 14.879 44.7664 14.1628 44.7664 13.4301C44.7652 12.448 44.3745 11.5064 43.68 10.8119C42.9855 10.1175 42.044 9.72676 41.0618 9.7255ZM41.0618 16.3566C40.4833 16.3566 39.9177 16.1851 39.4366 15.8636C38.9556 15.5422 38.5807 15.0854 38.3592 14.5508C38.1378 14.0163 38.0799 13.4281 38.1928 12.8607C38.3056 12.2933 38.5842 11.772 38.9933 11.3629C39.4024 10.9538 39.9236 10.6752 40.4911 10.5623C41.0585 10.4494 41.6467 10.5073 42.1812 10.7287C42.7157 10.9501 43.1726 11.325 43.4941 11.8061C43.8155 12.2871 43.9871 12.8527 43.9871 13.4313C43.9873 13.8155 43.9117 14.196 43.7648 14.5511C43.6179 14.9062 43.4024 15.2288 43.1308 15.5006C42.8591 15.7723 42.5366 15.9879 42.1816 16.135C41.8266 16.2821 41.4461 16.3578 41.0618 16.3578V16.3566ZM41.998 13.4313C41.998 13.6164 41.9431 13.7974 41.8403 13.9514C41.7374 14.1053 41.5912 14.2253 41.4202 14.2962C41.2491 14.3671 41.0609 14.3856 40.8793 14.3495C40.6977 14.3134 40.5309 14.2243 40.3999 14.0933C40.269 13.9624 40.1798 13.7956 40.1437 13.614C40.1076 13.4324 40.1261 13.2442 40.1969 13.0731C40.2678 12.9021 40.3878 12.7559 40.5417 12.653C40.6957 12.5501 40.8767 12.4952 41.0618 12.4952C41.3101 12.4952 41.5482 12.5938 41.7237 12.7694C41.8993 12.9449 41.9979 13.183 41.998 13.4313ZM13.992 13.4313C13.992 12.6986 13.7747 11.9823 13.3676 11.3731C12.9606 10.7639 12.382 10.2891 11.7051 10.0087C11.0281 9.72836 10.2833 9.65501 9.56467 9.79795C8.84606 9.9409 8.18597 10.2937 7.66788 10.8118C7.1498 11.3299 6.79697 11.99 6.65402 12.7086C6.51108 13.4272 6.58443 14.1721 6.86481 14.849C7.14519 15.5259 7.62 16.1045 8.2292 16.5116C8.8384 16.9186 9.55463 17.1359 10.2873 17.1359C11.2695 17.1347 12.2111 16.744 12.9056 16.0495C13.6001 15.355 13.9908 14.4134 13.992 13.4313ZM10.2873 16.3566C9.70876 16.3566 9.1432 16.185 8.66216 15.8636C8.18112 15.5422 7.80619 15.0853 7.5848 14.5508C7.3634 14.0162 7.30548 13.4281 7.41836 12.8606C7.53123 12.2932 7.80984 11.772 8.21894 11.3629C8.62804 10.9538 9.14927 10.6752 9.71671 10.5623C10.2841 10.4494 10.8723 10.5073 11.4068 10.7287C11.9414 10.9501 12.3982 11.325 12.7197 11.8061C13.0411 12.2871 13.2127 12.8527 13.2127 13.4313C13.2129 13.8155 13.1373 14.1961 12.9904 14.5511C12.8434 14.9062 12.628 15.2288 12.3563 15.5006C12.0847 15.7724 11.7621 15.9879 11.4071 16.135C11.0521 16.2821 10.6716 16.3578 10.2873 16.3578V16.3566ZM46.7217 14.055C46.8133 13.2823 46.7456 12.4991 46.5227 11.7536C46.2999 11.0082 45.9266 10.3163 45.4261 9.72064C44.9255 9.125 44.3081 8.63825 43.6121 8.29044C42.9161 7.94262 42.1563 7.74111 41.3794 7.69834C40.6025 7.65557 39.8251 7.77244 39.0951 8.04175C38.3651 8.31106 37.6981 8.72709 37.1351 9.26417C36.5722 9.80125 36.1252 10.448 35.8219 11.1645C35.5186 11.881 35.3653 12.6521 35.3715 13.4301C35.3706 14.2931 35.5671 15.1448 35.946 15.9202H15.4032C15.795 15.1163 15.992 14.2315 15.9782 13.3373C15.9644 12.4431 15.7401 11.5647 15.3236 10.7734C14.9071 9.98201 14.31 9.29988 13.5808 8.78225C12.8515 8.26461 12.0106 7.92603 11.1261 7.79394C10.2416 7.66184 9.33845 7.73994 8.48978 8.02192C7.6411 8.30389 6.87078 8.7818 6.24121 9.41694C5.61164 10.0521 5.14053 10.8266 4.86605 11.6777C4.59156 12.5288 4.52142 13.4326 4.6613 14.3159C1.95951 13.1808 0.214844 11.3238 0.214844 8.38679C0.214844 5.34443 9.37691 1.06535 15.2043 0.864014V4.45987C15.2043 5.15441 15.4802 5.82051 15.9713 6.31163C16.4624 6.80275 17.1285 7.07866 17.8231 7.07866H22.8346C23.4535 7.07772 24.052 6.85715 24.5234 6.45622C24.9949 6.05529 25.3087 5.50003 25.409 4.88933C25.409 4.88933 25.2381 2.60404 24.6904 2.19798L25.0498 1.93009L27.631 4.89165H37.5561C44.3054 4.88933 49.7852 7.36173 49.7852 10.4041C49.7852 11.8083 48.6278 13.0826 46.7217 14.055ZM11.2235 13.4301C11.2235 13.6152 11.1686 13.7962 11.0657 13.9502C10.9628 14.1041 10.8166 14.2241 10.6456 14.295C10.4745 14.3658 10.2863 14.3844 10.1047 14.3482C9.92309 14.3121 9.75629 14.223 9.62537 14.092C9.49445 13.9611 9.40529 13.7943 9.36917 13.6127C9.33305 13.4311 9.35158 13.2429 9.42244 13.0718C9.49329 12.9008 9.61328 12.7546 9.76723 12.6517C9.92118 12.5489 10.1022 12.4939 10.2873 12.4939C10.4104 12.4939 10.5322 12.5182 10.6458 12.5653C10.7595 12.6124 10.8627 12.6815 10.9497 12.7685C11.0366 12.8556 11.1056 12.9589 11.1525 13.0726C11.1995 13.1864 11.2236 13.3082 11.2235 13.4313V13.4301Z" fill="#28A265"/>
</svg>
