<svg width="306" height="151" viewBox="0 0 306 151" fill="none" xmlns="http://www.w3.org/2000/svg">
<g clip-path="url(#clip0_1735_4059)">
<path d="M210.253 150.829V127.462C210.253 127.462 219.429 144.028 210.253 150.829Z" fill="#F1F1F1"/>
<path d="M210.82 150.824L193.477 135.022C193.477 135.022 211.977 139.517 210.82 150.824Z" fill="#F1F1F1"/>
<path d="M206.999 5.62988H0.0883789V103.074H206.999V5.62988Z" fill="#E6E6E6"/>
<path d="M201.082 13.9858H6.00488V95.2861H201.082V13.9858Z" fill="white"/>
<path d="M206.911 0H0V8.72402H206.911V0Z" fill="#28A265"/>
<path d="M6.53206 5.65214C7.43186 5.65214 8.16128 4.9282 8.16128 4.03518C8.16128 3.14215 7.43186 2.41821 6.53206 2.41821C5.63226 2.41821 4.90283 3.14215 4.90283 4.03518C4.90283 4.9282 5.63226 5.65214 6.53206 5.65214Z" fill="white"/>
<path d="M12.7161 5.65214C13.6159 5.65214 14.3454 4.9282 14.3454 4.03518C14.3454 3.14215 13.6159 2.41821 12.7161 2.41821C11.8163 2.41821 11.0869 3.14215 11.0869 4.03518C11.0869 4.9282 11.8163 5.65214 12.7161 5.65214Z" fill="white"/>
<path d="M18.9007 5.65214C19.8005 5.65214 20.5299 4.9282 20.5299 4.03518C20.5299 3.14215 19.8005 2.41821 18.9007 2.41821C18.0009 2.41821 17.2715 3.14215 17.2715 4.03518C17.2715 4.9282 18.0009 5.65214 18.9007 5.65214Z" fill="white"/>
<path d="M180.051 73.8759V73.2299H183.92L183.945 73.8754L183.933 73.8758L180.051 73.8759ZM176.182 73.8759H172.312V73.2299H176.182V73.8759ZM168.443 73.8759H164.574V73.2299H168.443V73.8759ZM160.704 73.8759H156.835V73.2299H160.704V73.8759ZM152.965 73.8759H149.096V73.2299H152.965V73.8759ZM145.227 73.8759H141.357V73.2299H145.227V73.8759ZM137.488 73.8759H133.618V73.2299H137.488V73.8759ZM129.749 73.8759H125.88V73.2299H129.749V73.8759ZM122.01 73.8759H118.571C118.359 73.8735 118.153 73.8042 117.983 73.678L118.362 73.1528C118.422 73.2 118.495 73.227 118.572 73.2299H122.01L122.01 73.8759ZM185.456 70.2H184.805V66.3597H185.456V70.2ZM117.687 69.7871H117.036V65.9468H117.687V69.7871ZM185.456 62.5194H184.805V58.6792H185.456V62.5194ZM117.687 62.1065H117.036V58.2664H117.687V62.1065ZM185.456 54.8389H184.805V50.9986H185.456V54.8389ZM117.687 54.4261H117.036V50.5859H117.687V54.4261ZM185.456 47.1585H184.805V43.3183H185.456V47.1585ZM117.687 46.7456H117.036V42.9054H117.687V46.7456ZM185.456 39.478H184.805V38.1766C184.804 37.0873 184.453 36.3451 184.126 36.1167L184.501 35.5887C185.08 35.9938 185.455 37.0097 185.456 38.1765V39.478ZM117.687 39.0651H117.036V38.1766C117.036 36.605 117.691 35.4096 118.559 35.3962L118.569 36.0423C118.201 36.0479 117.687 36.8627 117.687 38.1766V39.0651ZM180.474 36.0423H176.605V35.3962H180.474V36.0423ZM172.735 36.0423H168.866V35.3962H172.735V36.0423ZM164.997 36.0423H161.127V35.3962H164.997V36.0423ZM157.258 36.0423H153.389V35.3962H157.258V36.0423ZM149.519 36.0423H145.65V35.3962H149.519V36.0423ZM141.78 36.0423H137.911V35.3962H141.78V36.0423ZM134.042 36.0423H130.172V35.3962H134.042V36.0423ZM126.303 36.0423H122.433V35.3962H126.303V36.0423Z" fill="#E4E4E4"/>
<path d="M65.2049 37.6699H25.3169V39.9425H65.2049V37.6699Z" fill="#E6E6E6"/>
<path d="M86.9128 45.9595H25.3169V48.2321H86.9128V45.9595Z" fill="#28A265"/>
<path d="M75.516 53.7688H25.3169V56.0414H75.516V53.7688Z" fill="#E6E6E6"/>
<path d="M54.6224 61.5493H25.3169V63.8219H54.6224V61.5493Z" fill="#E6E6E6"/>
<path d="M69.5465 69.3296H25.3169V71.6022H69.5465V69.3296Z" fill="#E6E6E6"/>
<path d="M219.883 52.1516C220.3 52.3462 220.754 52.4477 221.215 52.449C221.676 52.4503 222.131 52.3514 222.549 52.1592C222.967 51.967 223.337 51.6861 223.634 51.3365C223.93 50.9868 224.146 50.5769 224.266 50.1355L235.434 49.3489L231.896 44.7654L221.833 46.2151C221.072 46.0645 220.282 46.1959 219.613 46.5846C218.944 46.9733 218.441 47.5921 218.201 48.3239C217.961 49.0556 217.999 49.8495 218.309 50.5549C218.619 51.2604 219.179 51.8285 219.883 52.1516Z" fill="#9E616A"/>
<path d="M263.346 45.1476L266.863 43.128C267.916 42.5235 268.698 41.5451 269.053 40.3903C269.407 39.2355 269.307 37.9903 268.772 36.9061L268.893 36.8674C268.371 35.8685 267.518 35.0784 266.478 34.6299C265.438 34.1815 264.274 34.102 263.182 34.4049L225.161 44.4486L226.536 53.4902L263.346 45.1476Z" fill="#3F3D56"/>
<path d="M229.01 87.212H163.661C162.993 87.2103 162.452 86.1114 162.451 84.7546V51.8358C162.451 50.4793 162.993 49.3807 163.661 49.3784H229.01C229.678 49.3801 230.219 50.479 230.22 51.8358V84.7543C230.219 86.1108 229.677 87.2103 229.01 87.212Z" fill="white"/>
<path d="M184.677 68.0831C187.833 68.0831 190.392 65.5439 190.392 62.4117C190.392 59.2794 187.833 56.7402 184.677 56.7402C181.521 56.7402 178.963 59.2794 178.963 62.4117C178.963 65.5439 181.521 68.0831 184.677 68.0831Z" fill="#3F3D56"/>
<path d="M202.597 79.8886H174.564C174.529 79.8889 174.494 79.8861 174.459 79.8801L187.718 57.088C187.799 56.946 187.917 56.8278 188.059 56.7456C188.201 56.6634 188.362 56.6201 188.526 56.6201C188.691 56.6201 188.852 56.6634 188.994 56.7456C189.136 56.8278 189.253 56.946 189.334 57.088L198.232 72.3834L198.659 73.1151L202.597 79.8886Z" fill="#28A265"/>
<path d="M218.205 79.8889H193.958L198.657 73.116L198.995 72.6281L205.117 63.8014C205.226 63.6663 205.361 63.5554 205.516 63.4758C205.67 63.3963 205.839 63.3499 206.013 63.3396C206.187 63.3293 206.36 63.3554 206.523 63.4162C206.686 63.477 206.834 63.5711 206.958 63.6924C206.989 63.7269 207.019 63.7632 207.046 63.8014L218.205 79.8889Z" fill="#28A265"/>
<path d="M229.01 87.212H163.661C162.993 87.2103 162.452 86.1114 162.451 84.7546V51.8358C162.451 50.4793 162.993 49.3807 163.661 49.3784H229.01C229.678 49.3801 230.219 50.479 230.22 51.8358V84.7543C230.219 86.1108 229.677 87.2103 229.01 87.212ZM163.661 50.3613C163.26 50.3613 162.935 51.022 162.935 51.8358V84.7543C162.935 85.5681 163.26 86.2279 163.661 86.2288H229.01C229.411 86.2288 229.736 85.5684 229.736 84.7543V51.8358C229.736 51.022 229.411 50.3622 229.01 50.3613H163.661Z" fill="#E6E6E6"/>
<path d="M260.939 27.9129C265.203 27.9129 268.66 24.4821 268.66 20.25C268.66 16.0179 265.203 12.5872 260.939 12.5872C256.675 12.5872 253.218 16.0179 253.218 20.25C253.218 24.4821 256.675 27.9129 260.939 27.9129Z" fill="#9E616A"/>
<path d="M266.403 26.3123C264.963 27.8351 262.288 27.0176 262.1 24.9373C262.085 24.7758 262.086 24.6132 262.103 24.4519C262.2 23.5304 262.737 22.6938 262.608 21.7209C262.579 21.4787 262.488 21.248 262.344 21.0504C261.196 19.525 258.502 21.7327 257.418 20.3518C256.754 19.505 257.535 18.1718 257.025 17.2254C256.353 15.9764 254.36 16.5925 253.11 15.9085C251.72 15.1474 251.803 13.0303 252.718 11.7425C253.835 10.1721 255.791 9.33409 257.724 9.21332C259.657 9.09255 261.576 9.61103 263.38 10.3089C265.43 11.1017 267.463 12.1975 268.724 13.9865C270.259 16.1621 270.406 19.0869 269.639 21.6309C269.172 23.1784 267.579 25.0688 266.403 26.3123Z" fill="#2F2E41"/>
<path d="M265.317 147.245H261.661L259.922 133.25L265.318 133.25L265.317 147.245Z" fill="#9E616A"/>
<path d="M266.249 150.762L254.461 150.762V150.614C254.462 149.406 254.945 148.248 255.805 147.394C256.666 146.54 257.833 146.06 259.05 146.06L266.249 146.06L266.249 150.762Z" fill="#2F2E41"/>
<path d="M236.197 147.126L232.641 146.284L234.221 132.271L239.469 133.514L236.197 147.126Z" fill="#9E616A"/>
<path d="M236.281 150.762L224.815 148.047L224.85 147.903C225.132 146.729 225.873 145.713 226.91 145.081C227.947 144.448 229.194 144.25 230.377 144.53L237.381 146.189L236.281 150.762Z" fill="#2F2E41"/>
<path d="M245.415 75.5032L231.084 142.561L240.06 142.022L255.534 104.017L257.867 142.385L267.67 142.961L267.551 87.3892C267.551 87.3892 271.64 78.652 268.094 73.8822C264.547 69.1125 245.415 75.5032 245.415 75.5032Z" fill="#2F2E41"/>
<path d="M266.773 31.1632L258.089 30.9712H257.042C252.873 34.3421 251.121 41.8434 250.536 47.1486L244.272 78.745C244.272 78.745 260.135 83.2361 269.15 77.9937L269.654 57.2858C269.654 57.2858 271.88 36.2318 266.773 31.1632Z" fill="#3F3D56"/>
<path d="M225.191 77.3164C225.65 77.2825 226.096 77.1491 226.498 76.9255C226.9 76.702 227.247 76.3937 227.516 76.0224C227.785 75.6511 227.968 75.2259 228.053 74.7767C228.138 74.3274 228.123 73.8651 228.009 73.4222L237.345 67.2888L231.994 65.0237L223.948 71.1954C223.211 71.4352 222.589 71.935 222.198 72.6C221.808 73.265 221.677 74.0491 221.83 74.8036C221.983 75.5581 222.41 76.2306 223.029 76.6937C223.649 77.1568 224.418 77.3784 225.191 77.3164Z" fill="#9E616A"/>
<path d="M264.588 44.5971L266.65 41.1228C267.268 40.0827 267.465 38.8489 267.201 37.6704C266.938 36.4919 266.234 35.4565 265.231 34.773C264.308 34.144 263.193 33.8545 262.078 33.9547C260.963 34.0549 259.919 34.5385 259.125 35.3219L225.972 68.033L231.648 75.2362L264.588 44.5971Z" fill="#3F3D56"/>
<path d="M305.675 151H181.676C181.59 151 181.507 150.966 181.446 150.905C181.385 150.845 181.351 150.763 181.351 150.677C181.351 150.591 181.385 150.509 181.446 150.449C181.507 150.388 181.59 150.354 181.676 150.354H305.675C305.761 150.354 305.844 150.388 305.905 150.449C305.966 150.509 306 150.591 306 150.677C306 150.763 305.966 150.845 305.905 150.905C305.844 150.966 305.761 151 305.675 151Z" fill="#CACACA"/>
<path d="M151.888 52.0034H151.062V58.1207H151.888V52.0034Z" fill="#E4E4E4"/>
<path d="M154.853 54.7202L154.248 55.2797L151.475 52.3183L148.702 55.2797L148.097 54.7202L151.475 51.1145L154.853 54.7202Z" fill="#E4E4E4"/>
<path d="M151.246 61.1953C149.939 61.1953 148.661 60.8106 147.574 60.0899C146.487 59.3691 145.64 58.3447 145.14 57.1461C144.64 55.9476 144.509 54.6287 144.764 53.3563C145.019 52.0839 145.648 50.9152 146.572 49.9978C147.497 49.0805 148.674 48.4558 149.956 48.2027C151.238 47.9496 152.567 48.0795 153.775 48.576C154.983 49.0724 156.015 49.9131 156.741 50.9918C157.467 52.0705 157.855 53.3387 157.855 54.636C157.853 56.375 157.156 58.0423 155.917 59.272C154.678 60.5016 152.998 61.1933 151.246 61.1953ZM151.246 48.8966C150.102 48.8966 148.984 49.2332 148.033 49.8638C147.082 50.4945 146.341 51.3909 145.903 52.4396C145.465 53.4883 145.351 54.6423 145.574 55.7557C145.797 56.869 146.348 57.8917 147.157 58.6944C147.965 59.497 148.996 60.0437 150.118 60.2651C151.239 60.4866 152.402 60.3729 153.459 59.9385C154.516 59.5041 155.419 58.7685 156.054 57.8246C156.69 56.8808 157.029 55.7711 157.029 54.636C157.027 53.1143 156.417 51.6555 155.333 50.5795C154.249 49.5035 152.779 48.8983 151.246 48.8966Z" fill="#E4E4E4"/>
</g>
<defs>
<clipPath id="clip0_1735_4059">
<rect width="306" height="151" fill="white"/>
</clipPath>
</defs>
</svg>
